<?xml version="1.0" standalone="yes"?>

<svg version="1.1" viewBox="0.0 0.0 960.0 540.0" fill="none" stroke="none" stroke-linecap="square" stroke-miterlimit="10" xmlns="http://www.w3.org/2000/svg" xmlns:xlink="http://www.w3.org/1999/xlink"><clipPath id="p.0"><path d="m0 0l960.0 0l0 540.0l-960.0 0l0 -540.0z" clip-rule="nonzero"></path></clipPath><g clip-path="url(#p.0)"><path fill="#ffffff" d="m0 0l960.0 0l0 540.0l-960.0 0z" fill-rule="nonzero"></path><path fill="#000000" fill-opacity="0.0" d="m735.7202 333.5315l59.02362 0" fill-rule="nonzero"></path><path stroke="#b3a77d" stroke-width="8.0" stroke-linejoin="round" stroke-linecap="butt" d="m735.7202 333.5315l59.02362 0" fill-rule="nonzero"></path><path fill="#000000" fill-opacity="0.0" d="m165.358 331.57498l59.02362 0" fill-rule="nonzero"></path><path stroke="#b3a77d" stroke-width="8.0" stroke-linejoin="round" stroke-linecap="butt" d="m165.358 331.57498l59.02362 0" fill-rule="nonzero"></path><path fill="#000000" fill-opacity="0.0" d="m854.6784 107.29921l-749.2565 0" fill-rule="nonzero"></path><path stroke="#4db6ac" stroke-width="8.0" stroke-linejoin="round" stroke-linecap="butt" d="m854.6784 107.29921l-749.2565 0" fill-rule="nonzero"></path><path fill="#000000" fill-opacity="0.0" d="m854.6784 123.29921l-749.2565 0" fill-rule="nonzero"></path><path stroke="#4db6ac" stroke-width="1.0" stroke-linejoin="round" stroke-linecap="butt" d="m854.6784 123.29921l-749.2565 0" fill-rule="nonzero"></path><path fill="#000000" fill-opacity="0.0" d="m105.42268 432.7034l749.2565 0" fill-rule="nonzero"></path><path stroke="#4db6ac" stroke-width="8.0" stroke-linejoin="round" stroke-linecap="butt" d="m105.42268 432.7034l749.2565 0" fill-rule="nonzero"></path><path fill="#000000" fill-opacity="0.0" d="m105.42268 416.7034l749.2565 0" fill-rule="nonzero"></path><path stroke="#4db6ac" stroke-width="1.0" stroke-linejoin="round" stroke-linecap="butt" d="m105.42268 416.7034l749.2565 0" fill-rule="nonzero"></path><path fill="#000000" fill-opacity="0.0" d="m105.42257 183.91223l749.2599 0l0 107.33859l-749.2599 0z" fill-rule="nonzero"></path><path fill="#ef6c00" d="m374.21655 263.3552q-1.875 1.578125 -5.015625 2.296875q-3.125 0.734375 -6.21875 0.734375q-3.890625 0 -7.234375 -1.328125q-3.34375 -1.34375 -5.875 -4.4375q-2.515625 -3.09375 -3.953125 -8.125q-1.4375 -5.046875 -1.4375 -12.390625q0 -7.640625 1.609375 -12.671875q1.625 -5.046875 4.25 -8.03125q2.625 -2.984375 6.015625 -4.203125q3.390625 -1.234375 6.84375 -1.234375q3.53125 0 6.15625 0.578125q2.625 0.578125 4.28125 1.296875l-1.796875 7.984375q-1.375 -0.71875 -3.21875 -1.109375q-1.828125 -0.40625 -4.34375 -0.40625q-4.96875 0 -7.640625 4.328125q-2.65625 4.3125 -2.65625 13.53125q0 3.96875 0.609375 7.25q0.609375 3.265625 1.9375 5.640625q1.34375 2.375 3.390625 3.671875q2.046875 1.296875 4.9375 1.296875q2.515625 0 4.3125 -0.6875q1.796875 -0.6875 3.25 -1.609375l1.796875 7.625zm4.310272 -47.875q2.953125 -0.65625 6.328125 -0.9375q3.390625 -0.296875 5.84375 -0.296875q3.09375 0 6.046875 0.625q2.953125 0.609375 5.21875 2.234375q2.265625 1.609375 3.671875 4.390625q1.40625 2.765625 1.40625 7.015625q0 6.109375 -2.265625 9.96875q-2.265625 3.84375 -6.234375 5.296875l2.890625 2.296875l9.28125 19.296875l-10.4375 0l-8.78125 -19.875l-3.890625 -0.9375l0 20.8125l-9.078125 0l0 -49.890625zm9.078125 22.890625l3.09375 0q3.390625 0 5.109375 -2.046875q1.734375 -2.0625 1.734375 -6.375q0 -3.234375 -1.4375 -5.28125q-1.4375 -2.0625 -4.546875 -2.0625q-1.140625 0 -2.234375 0.078125q-1.078125 0.0625 -1.71875 0.28125l0 15.40625zm59.403503 1.015625l1.0 -9.65625l-0.359375 0l-2.65625 8.640625l-8.21875 17.71875l-3.015625 0l-8.71875 -17.796875l-2.65625 -8.703125l-0.4375 0l1.375 9.71875l0 26.0625l-8.578125 0l0 -50.40625l8.71875 0l10.515625 21.828125l1.71875 6.265625l0.296875 0l1.65625 -6.421875l9.859375 -21.671875l8.5625 0l0 50.40625l-9.0625 0l0 -25.984375zm54.505524 23.328125q-1.8125 1.578125 -4.90625 2.59375q-3.09375 1.0 -6.46875 1.0q-3.75 0 -6.453125 -1.296875q-2.703125 -1.296875 -4.4375 -3.734375q-1.71875 -2.453125 -2.546875 -5.9375q-0.828125 -3.5 -0.828125 -7.96875q0 -9.71875 3.84375 -14.359375q3.859375 -4.65625 10.703125 -4.65625q2.296875 0 4.453125 0.6875q2.171875 0.6875 3.859375 2.3125q1.703125 1.609375 2.734375 4.3125q1.046875 2.703125 1.046875 6.8125q0 1.578125 -0.1875 3.375q-0.171875 1.796875 -0.53125 3.890625l-17.5 0q0.15625 4.46875 1.875 6.84375q1.734375 2.375 5.546875 2.375q2.296875 0 4.203125 -0.71875q1.921875 -0.71875 2.921875 -1.515625l2.671875 5.984375zm-11.234375 -27.0q-2.734375 0 -4.109375 2.203125q-1.359375 2.1875 -1.578125 6.140625l9.9375 0q0.203125 -4.109375 -0.875 -6.21875q-1.078125 -2.125 -3.375 -2.125zm28.659729 12.453125l0.859375 5.6875l0.28125 0l0.796875 -5.765625l4.46875 -18.71875l9.203125 0l-12.09375 36.359375l-5.75 0l-12.7499695 -36.359375l10.0155945 0l4.96875 18.796875zm42.118652 14.546875q-1.8125 1.578125 -4.90625 2.59375q-3.09375 1.0 -6.46875 1.0q-3.75 0 -6.453125 -1.296875q-2.703125 -1.296875 -4.4375 -3.734375q-1.71875 -2.453125 -2.546875 -5.9375q-0.828125 -3.5 -0.828125 -7.96875q0 -9.71875 3.84375 -14.359375q3.859375 -4.65625 10.703125 -4.65625q2.296875 0 4.453125 0.6875q2.171875 0.6875 3.859375 2.3125q1.703125 1.609375 2.734375 4.3125q1.046875 2.703125 1.046875 6.8125q0 1.578125 -0.1875 3.375q-0.171875 1.796875 -0.53125 3.890625l-17.5 0q0.15625 4.46875 1.875 6.84375q1.734375 2.375 5.546875 2.375q2.296875 0 4.203125 -0.71875q1.921875 -0.71875 2.921875 -1.515625l2.671875 5.984375zm-11.234375 -27.0q-2.734375 0 -4.109375 2.203125q-1.359375 2.1875 -1.578125 6.140625l9.9375 0q0.203125 -4.109375 -0.875 -6.21875q-1.078125 -2.125 -3.375 -2.125zm35.56598 29.65625l0 -21.890625q0 -3.953125 -0.9375 -5.53125q-0.9375 -1.59375 -3.171875 -1.59375q-1.875 0 -3.25 1.15625q-1.359375 1.140625 -1.9375 2.875l0 24.984375l-8.5625 0l0 -36.0l6.84375 0l1.0 4.171875l0.21875 0q1.296875 -2.078125 3.53125 -3.546875q2.234375 -1.484375 5.828125 -1.484375q2.171875 0 3.859375 0.65625q1.6875 0.640625 2.84375 2.125q1.15625 1.46875 1.71875 3.953125q0.578125 2.484375 0.578125 6.15625l0 23.96875l-8.5625 0zm11.656189 -36.0l3.96875 0l0 -6.765625l8.5625 -2.671875l0 9.4375l6.984375 0l0 7.625l-6.984375 0l0 15.703125q0 3.09375 0.609375 4.390625q0.625 1.296875 2.203125 1.296875q1.078125 0 1.9375 -0.21875q0.875 -0.21875 1.875 -0.640625l1.078125 6.828125q-1.578125 0.796875 -3.671875 1.328125q-2.078125 0.546875 -4.390625 0.546875q-4.09375 0 -6.15625 -2.375q-2.046875 -2.375 -2.046875 -7.984375l0 -18.875l-3.96875 0l0 -7.625z" fill-rule="nonzero"></path><path fill="#000000" fill-opacity="0.0" d="m221.14961 299.21783l518.89764 0l0 83.212616l-518.89764 0z" fill-rule="nonzero"></path><path fill="#695d46" d="m424.56717 327.2972q0 5.65625 -3.078125 8.65625q-3.0625 2.984375 -8.828125 2.984375l-6.328125 0l0 -22.84375l7.0 0q5.328125 0 8.28125 2.953125q2.953125 2.953125 2.953125 8.25zm-2.8125 0.09375q0 -4.46875 -2.25 -6.734375q-2.234375 -2.265625 -6.65625 -2.265625l-3.859375 0l0 18.25l3.234375 0q4.75 0 7.140625 -2.328125q2.390625 -2.34375 2.390625 -6.921875zm14.75 11.859375q-3.796875 0 -6.0 -2.3125q-2.1875 -2.3125 -2.1875 -6.421875q0 -4.140625 2.03125 -6.578125q2.046875 -2.4375 5.484375 -2.4375q3.21875 0 5.09375 2.125q1.875 2.109375 1.875 5.578125l0 1.640625l-11.796875 0q0.078125 3.015625 1.515625 4.578125q1.453125 1.5625 4.078125 1.5625q2.765625 0 5.46875 -1.15625l0 2.3125q-1.375 0.59375 -2.609375 0.84375q-1.21875 0.265625 -2.953125 0.265625zm-0.703125 -15.578125q-2.0625 0 -3.296875 1.34375q-1.21875 1.34375 -1.4375 3.71875l8.953125 0q0 -2.453125 -1.09375 -3.75q-1.09375 -1.3125 -3.125 -1.3125zm-2.140625 -4.515625q0.75 -0.96875 1.609375 -2.34375q0.875 -1.375 1.375 -2.390625l3.15625 0l0 0.328125q-0.6875 1.015625 -2.046875 2.5q-1.359375 1.484375 -2.359375 2.296875l-1.734375 0l0 -0.390625zm35.390625 19.78125l0 -11.140625q0 -2.046875 -0.875 -3.0625q-0.875 -1.03125 -2.71875 -1.03125q-2.421875 0 -3.578125 1.390625q-1.15625 1.390625 -1.15625 4.28125l0 9.5625l-2.59375 0l0 -11.140625q0 -2.046875 -0.875 -3.0625q-0.875 -1.03125 -2.734375 -1.03125q-2.4375 0 -3.578125 1.46875q-1.125 1.453125 -1.125 4.78125l0 8.984375l-2.59375 0l0 -17.125l2.109375 0l0.421875 2.34375l0.125 0q0.734375 -1.25 2.0625 -1.953125q1.34375 -0.703125 3.0 -0.703125q4.015625 0 5.25 2.90625l0.125 0q0.765625 -1.34375 2.21875 -2.125q1.453125 -0.78125 3.3125 -0.78125q2.90625 0 4.34375 1.5q1.453125 1.484375 1.453125 4.765625l0 11.171875l-2.59375 0zm22.71875 -8.578125q0 4.1875 -2.109375 6.546875q-2.109375 2.34375 -5.828125 2.34375q-2.296875 0 -4.078125 -1.078125q-1.78125 -1.078125 -2.75 -3.09375q-0.96875 -2.015625 -0.96875 -4.71875q0 -4.1875 2.09375 -6.515625q2.09375 -2.34375 5.8125 -2.34375q3.59375 0 5.703125 2.390625q2.125 2.390625 2.125 6.46875zm-13.046875 0q0 3.28125 1.3125 5.0q1.3125 1.71875 3.859375 1.71875q2.546875 0 3.859375 -1.703125q1.328125 -1.71875 1.328125 -5.015625q0 -3.265625 -1.328125 -4.953125q-1.3125 -1.703125 -3.890625 -1.703125q-2.546875 0 -3.84375 1.671875q-1.296875 1.671875 -1.296875 4.984375zm44.140656 8.578125l-3.03125 0l-12.4844055 -19.171875l-0.125 0q0.25 3.375 0.25 6.1875l0 12.984375l-2.453125 0l0 -22.84375l3.0 0l12.4531555 19.09375l0.125 0q-0.03125 -0.421875 -0.140625 -2.703125q-0.109375 -2.296875 -0.078125 -3.28125l0 -13.109375l2.484375 0l0 22.84375zm5.125 -18.296875q0 -2.03125 1.40625 -3.453125q1.421875 -1.421875 3.453125 -1.421875q2.03125 0 3.453125 1.421875q1.421875 1.40625 1.421875 3.453125q0 1.3125 -0.640625 2.4375q-0.640625 1.109375 -1.78125 1.765625q-1.140625 0.65625 -2.453125 0.65625q-2.03125 0 -3.453125 -1.40625q-1.40625 -1.40625 -1.40625 -3.453125zm1.796875 0q0 1.28125 0.90625 2.171875q0.921875 0.890625 2.1875 0.890625q1.25 0 2.140625 -0.875q0.90625 -0.890625 0.90625 -2.1875q0 -1.3125 -0.890625 -2.1875q-0.875 -0.890625 -2.15625 -0.890625q-1.296875 0 -2.203125 0.890625q-0.890625 0.890625 -0.890625 2.1875zm21.09375 18.296875l-2.53125 0l0 -16.28125q0 -2.03125 0.125 -3.84375q-0.328125 0.328125 -0.734375 0.6875q-0.40625 0.359375 -3.71875 3.046875l-1.375 -1.78125l6.046875 -4.671875l2.1875 0l0 22.84375z" fill-rule="nonzero"></path><path fill="#695d46" d="m432.25272 369.25784l-1.9375 -15.1875l-0.09375 0q-0.09375 0.84375 -0.34375 2.3125q-0.25 1.46875 -0.4375 2.34375l-2.21875 10.53125l-1.90625 0l3.625 -17.140625l2.859375 0l1.75 14.109375l0.09375 0l7.734375 -14.109375l3.109375 0l-3.546875 17.140625l-2.046875 0q1.484375 -6.921875 2.265625 -10.609375q0.78125 -3.703125 1.109375 -4.609375l-0.078125 0l-8.40625 15.21875l-1.53125 0zm19.648438 -13.078125q1.078125 0 1.921875 0.578125q0.84375 0.578125 1.3125 1.671875l0.140625 0l0.78125 -2.015625l1.484375 0l-2.734375 12.84375l-1.546875 0l0.296875 -2.453125l-0.09375 0q-2.09375 2.6875 -4.421875 2.6875q-1.625 0 -2.546875 -1.15625q-0.921875 -1.171875 -0.921875 -3.1875q0 -2.4375 0.828125 -4.515625q0.828125 -2.09375 2.296875 -3.265625q1.46875 -1.1875 3.203125 -1.1875zm-2.21875 11.6875q1.140625 0 2.265625 -1.078125q1.125 -1.09375 1.828125 -2.828125q0.703125 -1.75 0.703125 -3.5q0 -1.203125 -0.65625 -1.90625q-0.65625 -0.71875 -1.734375 -0.71875q-1.21875 0 -2.265625 1.015625q-1.046875 1.0 -1.640625 2.71875q-0.59375 1.71875 -0.59375 3.625q0 1.34375 0.546875 2.015625q0.546875 0.65625 1.546875 0.65625zm17.105469 -11.6875q0.8125 0 1.40625 0.15625l-0.421875 1.765625q-0.625 -0.15625 -1.234375 -0.15625q-1.0625 0 -2.0 0.703125q-0.921875 0.703125 -1.625 1.953125q-0.6875 1.25 -1.015625 2.765625l-1.265625 5.890625l-1.96875 0l2.75 -12.84375l1.625 0l-0.25 2.375l0.109375 0q0.84375 -1.109375 1.390625 -1.59375q0.5625 -0.484375 1.15625 -0.75q0.609375 -0.265625 1.34375 -0.265625zm9.300781 9.4375q0 1.828125 -1.296875 2.859375q-1.28125 1.015625 -3.640625 1.015625q-1.984375 0 -3.578125 -0.8125l0 -1.84375q0.828125 0.484375 1.765625 0.765625q0.953125 0.265625 1.765625 0.265625q1.46875 0 2.21875 -0.578125q0.75 -0.59375 0.75 -1.515625q0 -0.671875 -0.40625 -1.125q-0.40625 -0.453125 -1.765625 -1.25q-1.53125 -0.859375 -2.171875 -1.671875q-0.625 -0.828125 -0.625 -1.953125q0 -1.609375 1.1875 -2.59375q1.1875 -1.0 3.125 -1.0q2.0 0 3.859375 0.859375l-0.625 1.609375l-0.65625 -0.296875q-1.1875 -0.5 -2.578125 -0.5q-1.09375 0 -1.71875 0.515625q-0.625 0.5 -0.625 1.3125q0 0.65625 0.421875 1.125q0.421875 0.46875 1.71875 1.203125q1.25 0.703125 1.796875 1.21875q0.546875 0.5 0.8125 1.078125q0.265625 0.578125 0.265625 1.3125zm18.574219 3.640625l-10.53125 0l0.359375 -1.71875l5.453125 -4.921875q1.203125 -1.09375 2.0625 -1.921875q0.875 -0.828125 1.4375 -1.5625q0.578125 -0.734375 0.84375 -1.453125q0.28125 -0.71875 0.28125 -1.59375q0 -1.15625 -0.703125 -1.828125q-0.703125 -0.6875 -1.90625 -0.6875q-0.90625 0 -1.765625 0.328125q-0.859375 0.328125 -1.90625 1.125l-0.953125 -1.34375q2.234375 -1.796875 4.84375 -1.796875q2.0625 0 3.25 1.03125q1.203125 1.03125 1.203125 2.859375q0 1.296875 -0.46875 2.390625q-0.453125 1.078125 -1.53125 2.296875q-1.0625 1.21875 -3.4375 3.296875l-4.125 3.59375l0 0.09375l7.9375 0l-0.34375 1.8125zm15.34375 -11.890625q0 3.46875 -0.921875 6.328125q-0.921875 2.859375 -2.515625 4.328125q-1.578125 1.46875 -3.671875 1.46875q-2.0625 0 -3.171875 -1.484375q-1.09375 -1.5 -1.09375 -4.34375q0 -3.15625 0.953125 -6.015625q0.96875 -2.875 2.546875 -4.328125q1.578125 -1.46875 3.59375 -1.46875q4.28125 0 4.28125 5.515625zm-4.390625 -3.828125q-1.328125 0 -2.453125 1.359375q-1.125 1.34375 -1.828125 3.78125q-0.6875 2.4375 -0.6875 4.96875q0 2.015625 0.578125 3.09375q0.59375 1.078125 1.890625 1.078125q1.34375 0 2.4375 -1.328125q1.109375 -1.34375 1.765625 -3.84375q0.671875 -2.515625 0.671875 -5.328125q0 -3.78125 -2.375 -3.78125zm11.7031555 15.71875l-2.015625 0l2.296875 -10.703125q0.6875 -3.0625 1.03125 -4.203125q-0.578125 0.625 -1.625 1.296875l-2.09375 1.296875l-0.9375 -1.5l5.265625 -3.328125l1.75 0l-3.671875 17.140625zm7.890625 -4.96875q0 -2.453125 0.703125 -4.859375q0.71875 -2.421875 1.921875 -4.125q1.203125 -1.703125 2.875 -2.5625q1.6875 -0.859375 3.84375 -0.859375q1.296875 0 2.15625 0.265625l-0.421875 1.703125q-0.796875 -0.265625 -1.984375 -0.265625q-2.484375 0 -4.1875 1.75q-1.6875 1.75 -2.484375 5.1875l0.09375 0q0.6875 -0.921875 1.71875 -1.46875q1.03125 -0.5625 2.265625 -0.5625q1.8125 0 2.859375 1.15625q1.0625 1.15625 1.0625 3.171875q0 1.890625 -0.78125 3.453125q-0.78125 1.5625 -2.125 2.390625q-1.328125 0.828125 -3.046875 0.828125q-2.140625 0 -3.3125 -1.34375q-1.15625 -1.359375 -1.15625 -3.859375zm4.671875 3.546875q1.109375 0 1.96875 -0.625q0.859375 -0.640625 1.328125 -1.75q0.484375 -1.109375 0.484375 -2.4375q0 -2.90625 -2.59375 -2.90625q-0.78125 0 -1.515625 0.34375q-0.71875 0.328125 -1.28125 0.890625q-0.5625 0.546875 -0.84375 1.21875q-0.28125 0.65625 -0.28125 1.8125q0 1.609375 0.703125 2.53125q0.71875 0.921875 2.03125 0.921875z" fill-rule="nonzero"></path></g></svg>

