<?xml version="1.0" standalone="yes"?>

<svg version="1.1" viewBox="0.0 0.0 960.0 540.0" fill="none" stroke="none" stroke-linecap="square" stroke-miterlimit="10" xmlns="http://www.w3.org/2000/svg" xmlns:xlink="http://www.w3.org/1999/xlink"><clipPath id="g10c8bc1927_1_4.0"><path d="m0 0l960.0 0l0 540.0l-960.0 0l0 -540.0z" clip-rule="nonzero"></path></clipPath><g clip-path="url(#g10c8bc1927_1_4.0)"><path fill="#ffffff" d="m0 0l960.0 0l0 540.0l-960.0 0z" fill-rule="nonzero"></path><path fill="#4db6ac" d="m480.0 0l480.0 0l0 540.0l-480.0 0z" fill-rule="nonzero"></path><path fill="#000000" fill-opacity="0.0" d="m528.04987 471.9685l49.165344 0" fill-rule="nonzero"></path><path stroke="#ffffff" stroke-width="2.0" stroke-linejoin="round" stroke-linecap="butt" d="m528.04987 471.9685l49.165344 0" fill-rule="nonzero"></path><path fill="#000000" fill-opacity="0.0" d="m27.874016 109.15223l424.6929 0l0 175.93701l-424.6929 0z" fill-rule="nonzero"></path><path fill="#ef6c00" d="m148.04248 261.28674q-1.453125 1.21875 -3.890625 1.78125q-2.4375 0.5625 -4.84375 0.5625q-3.03125 0 -5.640625 -1.03125q-2.59375 -1.03125 -4.5625 -3.4375q-1.953125 -2.421875 -3.078125 -6.328125q-1.109375 -3.921875 -1.109375 -9.640625q0 -5.9375 1.25 -9.859375q1.265625 -3.921875 3.3125 -6.234375q2.046875 -2.328125 4.671875 -3.28125q2.640625 -0.953125 5.328125 -0.953125q2.734375 0 4.78125 0.453125q2.046875 0.4375 3.328125 1.0l-1.390625 6.21875q-1.0625 -0.5625 -2.5 -0.859375q-1.421875 -0.3125 -3.375 -0.3125q-3.875 0 -5.953125 3.359375q-2.0625 3.359375 -2.0625 10.53125q0 3.078125 0.46875 5.625q0.484375 2.546875 1.515625 4.390625q1.046875 1.84375 2.640625 2.859375q1.59375 1.0 3.828125 1.0q1.96875 0 3.359375 -0.53125q1.40625 -0.53125 2.53125 -1.25l1.390625 5.9375zm3.3576202 -37.25q2.296875 -0.5 4.921875 -0.71875q2.640625 -0.234375 4.546875 -0.234375q2.40625 0 4.703125 0.484375q2.296875 0.46875 4.0625 1.734375q1.765625 1.265625 2.859375 3.421875q1.09375 2.15625 1.09375 5.453125q0 4.765625 -1.765625 7.765625q-1.765625 2.984375 -4.84375 4.109375l2.234375 1.78125l7.21875 15.015625l-8.109375 0l-6.84375 -15.453125l-3.015625 -0.734375l0 16.1875l-7.0625 0l0 -38.8125zm7.0625 17.8125l2.40625 0q2.625 0 3.96875 -1.59375q1.34375 -1.59375 1.34375 -4.953125q0 -2.53125 -1.125 -4.125q-1.109375 -1.59375 -3.515625 -1.59375q-0.890625 0 -1.734375 0.0625q-0.84375 0.046875 -1.34375 0.21875l0 11.984375zm46.19925 0.78125l0.78125 -7.5l-0.28125 0l-2.0625 6.71875l-6.390625 13.78125l-2.359375 0l-6.765625 -13.84375l-2.078125 -6.765625l-0.328125 0l1.0625 7.5625l0 20.265625l-6.671875 0l0 -39.203125l6.78125 0l8.171875 16.96875l1.34375 4.875l0.234375 0l1.28125 -4.984375l7.671875 -16.859375l6.65625 0l0 39.203125l-7.046875 0l0 -20.21875zm23.57022 -18.984375l19.609375 0l0 6.5l-12.546875 0l0 9.625l11.359375 0l0 6.5l-11.359375 0l0 10.078125l12.765625 0l0 6.5l-19.828125 0l0 -39.203125zm32.486282 25.8125l0.671875 4.4375l0.21875 0l0.625 -4.484375l3.46875 -14.5625l7.171875 0l-9.421875 28.28125l-4.46875 0l-9.92189 -28.28125l7.7968903 0l3.859375 14.609375zm32.76587 11.3125q-1.40625 1.234375 -3.8125 2.03125q-2.40625 0.78125 -5.046875 0.78125q-2.90625 0 -5.015625 -1.0q-2.09375 -1.015625 -3.4375 -2.921875q-1.34375 -1.90625 -1.984375 -4.625q-0.640625 -2.71875 -0.640625 -6.1875q0 -7.5625 2.984375 -11.171875q3.0 -3.609375 8.328125 -3.609375q1.78125 0 3.453125 0.53125q1.6875 0.53125 3.0 1.796875q1.328125 1.25 2.140625 3.359375q0.8125 2.09375 0.8125 5.28125q0 1.234375 -0.140625 2.640625q-0.140625 1.390625 -0.421875 3.015625l-13.609375 0q0.109375 3.46875 1.453125 5.328125q1.34375 1.84375 4.3125 1.84375q1.796875 0 3.28125 -0.5625q1.484375 -0.5625 2.265625 -1.171875l2.078125 4.640625zm-8.75 -21.0q-2.125 0 -3.1875 1.71875q-1.0625 1.703125 -1.234375 4.78125l7.734375 0q0.171875 -3.1875 -0.671875 -4.84375q-0.84375 -1.65625 -2.640625 -1.65625zm27.671112 23.078125l0 -17.03125q0 -3.078125 -0.734375 -4.296875q-0.71875 -1.234375 -2.453125 -1.234375q-1.46875 0 -2.53125 0.890625q-1.0625 0.890625 -1.5 2.234375l0 19.4375l-6.671875 0l0 -28.0l5.328125 0l0.78125 3.25l0.171875 0q1.0 -1.625 2.734375 -2.765625q1.734375 -1.15625 4.53125 -1.15625q1.6875 0 3.0 0.515625q1.3125 0.5 2.203125 1.640625q0.90625 1.140625 1.34375 3.078125q0.453125 1.9375 0.453125 4.796875l0 18.640625l-6.65625 0zm9.065887 -28.0l3.078125 0l0 -5.265625l6.671875 -2.078125l0 7.34375l5.4375 0l0 5.9375l-5.4375 0l0 12.203125q0 2.40625 0.46875 3.421875q0.484375 1.0 1.71875 1.0q0.828125 0 1.5 -0.15625q0.6875 -0.171875 1.46875 -0.515625l0.828125 5.328125q-1.21875 0.609375 -2.84375 1.03125q-1.625 0.421875 -3.421875 0.421875q-3.1875 0 -4.796875 -1.84375q-1.59375 -1.859375 -1.59375 -6.21875l0 -14.671875l-3.078125 0l0 -5.9375zm27.88974 20.546875q0 -1.171875 -0.765625 -1.984375q-0.75 -0.8125 -1.921875 -1.5q-1.171875 -0.703125 -2.5 -1.4375q-1.3125 -0.734375 -2.484375 -1.796875q-1.171875 -1.0625 -1.9375 -2.5625q-0.75 -1.515625 -0.75 -3.8125q0 -3.921875 2.125 -6.046875q2.140625 -2.140625 6.28125 -2.140625q2.453125 0 4.640625 0.546875q2.1875 0.53125 3.46875 1.3125l-1.5625 5.140625q-1.0625 -0.4375 -2.578125 -0.859375q-1.515625 -0.421875 -2.96875 -0.421875q-2.734375 0 -2.734375 2.296875q0 1.0625 0.75 1.765625q0.75 0.703125 1.921875 1.375q1.1875 0.671875 2.5 1.40625q1.3125 0.71875 2.484375 1.8125q1.1875 1.09375 1.9375 2.65625q0.765625 1.5625 0.765625 3.859375q0 3.875 -2.359375 6.234375q-2.34375 2.34375 -7.0 2.34375q-2.296875 0 -4.515625 -0.5625q-2.203125 -0.5625 -3.546875 -1.453125l1.84375 -5.375q1.1875 0.671875 2.71875 1.171875q1.546875 0.5 3.21875 0.5q1.296875 0 2.125 -0.578125q0.84375 -0.59375 0.84375 -1.890625z" fill-rule="nonzero"></path><path fill="#000000" fill-opacity="0.0" d="m27.874016 286.2861l424.6929 0l0 129.66928l-424.6929 0z" fill-rule="nonzero"></path><path fill="#695d46" d="m181.18237 316.85358q0 2.625 -1.921875 4.109375q-1.90625 1.484375 -5.1875 1.484375q-3.5625 0 -5.46875 -0.921875l0 -2.25q1.234375 0.53125 2.671875 0.828125q1.453125 0.296875 2.875 0.296875q2.328125 0 3.5 -0.875q1.171875 -0.890625 1.171875 -2.453125q0 -1.046875 -0.421875 -1.703125q-0.40625 -0.671875 -1.390625 -1.234375q-0.96875 -0.5625 -2.96875 -1.265625q-2.78125 -1.0 -3.984375 -2.359375q-1.203125 -1.375 -1.203125 -3.578125q0 -2.3125 1.734375 -3.671875q1.75 -1.375 4.609375 -1.375q2.96875 0 5.46875 1.09375l-0.71875 2.03125q-2.46875 -1.046875 -4.8125 -1.046875q-1.84375 0 -2.890625 0.796875q-1.03125 0.796875 -1.03125 2.203125q0 1.03125 0.375 1.703125q0.390625 0.65625 1.296875 1.21875q0.90625 0.546875 2.78125 1.21875q3.140625 1.125 4.328125 2.40625q1.1875 1.28125 1.1875 3.34375zm21.429688 -4.703125q0 4.796875 -2.421875 7.546875q-2.421875 2.75 -6.75 2.75q-4.40625 0 -6.8125 -2.703125q-2.40625 -2.703125 -2.40625 -7.625q0 -4.890625 2.40625 -7.5625q2.40625 -2.6875 6.84375 -2.6875q4.3125 0 6.71875 2.734375q2.421875 2.734375 2.421875 7.546875zm-15.921875 0q0 4.046875 1.71875 6.15625q1.734375 2.09375 5.03125 2.09375q3.328125 0 5.015625 -2.09375q1.703125 -2.09375 1.703125 -6.15625q0 -4.046875 -1.6875 -6.125q-1.6875 -2.078125 -5.0 -2.078125q-3.328125 0 -5.0625 2.09375q-1.71875 2.09375 -1.71875 6.109375zm29.228516 10.015625l-6.78125 -17.71875l-0.109375 0q0.1875 2.109375 0.1875 5.0l0 12.71875l-2.140625 0l0 -19.984375l3.5 0l6.328125 16.484375l0.109375 0l6.390625 -16.484375l3.46875 0l0 19.984375l-2.328125 0l0 -12.875q0 -2.21875 0.1875 -4.8125l-0.109375 0l-6.828125 17.6875l-1.875 0zm25.279297 0l-6.78125 -17.71875l-0.109375 0q0.1875 2.109375 0.1875 5.0l0 12.71875l-2.140625 0l0 -19.984375l3.5 0l6.328125 16.484375l0.109375 0l6.390625 -16.484375l3.46875 0l0 19.984375l-2.328125 0l0 -12.875q0 -2.21875 0.1875 -4.8125l-0.109375 0l-6.828125 17.6875l-1.875 0zm28.998047 0l-2.484375 -6.359375l-8.015625 0l-2.453125 6.359375l-2.359375 0l7.90625 -20.078125l1.953125 0l7.859375 20.078125l-2.40625 0zm-3.21875 -8.453125l-2.3125 -6.1875q-0.453125 -1.171875 -0.9375 -2.890625q-0.296875 1.3125 -0.859375 2.890625l-2.34375 6.1875l6.453125 0zm8.375 8.453125l0 -19.984375l2.328125 0l0 19.984375l-2.328125 0zm10.134766 -8.3125l0 8.3125l-2.328125 0l0 -19.984375l5.484375 0q3.671875 0 5.421875 1.40625q1.765625 1.40625 1.765625 4.234375q0 3.96875 -4.015625 5.359375l5.421875 8.984375l-2.75 0l-4.828125 -8.3125l-4.171875 0zm0 -2.0l3.1875 0q2.453125 0 3.59375 -0.96875q1.15625 -0.984375 1.15625 -2.9375q0 -1.984375 -1.171875 -2.859375q-1.171875 -0.875 -3.75 -0.875l-3.015625 0l0 7.640625zm26.121094 10.3125l-11.140625 0l0 -19.984375l11.140625 0l0 2.0625l-8.8125 0l0 6.4375l8.28125 0l0 2.046875l-8.28125 0l0 7.359375l8.8125 0l0 2.078125z" fill-rule="nonzero"></path><path fill="#000000" fill-opacity="0.0" d="m518.5827 76.031494l402.8346 0l0 387.937l-402.8346 0z" fill-rule="nonzero"></path><path fill="#ffffff" d="m529.73895 168.54001l0 -17.140625l3.640625 0l0 17.140625l-3.640625 0zm15.5859375 -17.140625l-6.390625 17.140625l-3.234375 0l6.375 -17.140625l3.25 0zm15.7890625 2.78125q-2.046875 0 -3.171875 1.546875q-1.125 1.53125 -1.125 4.296875q0 5.71875 4.296875 5.71875q1.796875 0 4.375 -0.890625l0 3.046875q-2.109375 0.875 -4.71875 0.875q-3.734375 0 -5.71875 -2.265625q-1.984375 -2.265625 -1.984375 -6.515625q0 -2.671875 0.96875 -4.671875q0.984375 -2.015625 2.796875 -3.078125q1.828125 -1.078125 4.28125 -1.078125q2.5 0 5.015625 1.203125l-1.171875 2.953125q-0.96875 -0.453125 -1.9375 -0.796875q-0.96875 -0.34375 -1.90625 -0.34375zm13.152344 3.546875q-1.125 0 -1.78125 0.734375q-0.640625 0.71875 -0.734375 2.03125l5.015625 0q-0.015625 -1.3125 -0.6875 -2.03125q-0.671875 -0.734375 -1.8125 -0.734375zm0.515625 11.046875q-3.171875 0 -4.953125 -1.75q-1.78125 -1.75 -1.78125 -4.9375q0 -3.296875 1.640625 -5.09375q1.65625 -1.796875 4.5625 -1.796875q2.78125 0 4.328125 1.578125q1.546875 1.578125 1.546875 4.375l0 1.734375l-8.453125 0q0.0625 1.515625 0.90625 2.375q0.84375 0.859375 2.359375 0.859375q1.1875 0 2.234375 -0.25q1.0625 -0.25 2.203125 -0.78125l0 2.765625q-0.9375 0.46875 -2.0 0.6875q-1.0625 0.234375 -2.59375 0.234375zm19.898438 -2.796875q1.359375 0 1.984375 -0.78125q0.640625 -0.78125 0.703125 -2.734375l0 -0.421875q0 -2.109375 -0.65625 -3.015625q-0.640625 -0.921875 -2.078125 -0.921875q-2.53125 0 -2.53125 3.953125q0 1.96875 0.625 2.953125q0.640625 0.96875 1.953125 0.96875zm-1.265625 2.796875q-2.328125 0 -3.640625 -1.78125q-1.3125 -1.796875 -1.3125 -4.984375q0 -3.203125 1.34375 -5.0q1.34375 -1.8125 3.671875 -1.8125q1.25 0 2.171875 0.46875q0.921875 0.46875 1.625 1.453125l0.09375 0l0.3125 -1.6875l3.03125 0l0 18.875l-3.59375 0l0 -5.5q0 -0.71875 0.15625 -1.96875l-0.15625 0q-0.5625 0.953125 -1.515625 1.453125q-0.953125 0.484375 -2.1875 0.484375zm20.3125 -0.234375l-0.484375 -1.671875l-0.1875 0q-0.5625 0.90625 -1.625 1.40625q-1.046875 0.5 -2.40625 0.5q-2.296875 0 -3.46875 -1.234375q-1.171875 -1.234375 -1.171875 -3.5625l0 -8.546875l3.5625 0l0 7.65625q0 1.421875 0.5 2.140625q0.515625 0.703125 1.609375 0.703125q1.5 0 2.171875 -1.0q0.671875 -1.015625 0.671875 -3.328125l0 -6.171875l3.578125 0l0 13.109375l-2.75 0zm11.9140625 -10.8125q-1.125 0 -1.78125 0.734375q-0.640625 0.71875 -0.734375 2.03125l5.015625 0q-0.015625 -1.3125 -0.6875 -2.03125q-0.671875 -0.734375 -1.8125 -0.734375zm0.515625 11.046875q-3.171875 0 -4.953125 -1.75q-1.78125 -1.75 -1.78125 -4.9375q0 -3.296875 1.640625 -5.09375q1.65625 -1.796875 4.5625 -1.796875q2.78125 0 4.328125 1.578125q1.546875 1.578125 1.546875 4.375l0 1.734375l-8.453125 0q0.0625 1.515625 0.90625 2.375q0.84375 0.859375 2.359375 0.859375q1.1875 0 2.234375 -0.25q1.0625 -0.25 2.203125 -0.78125l0 2.765625q-0.9375 0.46875 -2.0 0.6875q-1.0625 0.234375 -2.59375 0.234375zm17.601562 -0.234375l-5.0 -13.109375l3.734375 0l2.53125 7.46875q0.421875 1.421875 0.53125 2.6875l0.078125 0q0.046875 -1.125 0.515625 -2.6875l2.53125 -7.46875l3.734375 0l-5.0 13.109375l-3.65625 0zm13.371094 -6.578125q0 1.953125 0.640625 2.953125q0.640625 0.984375 2.078125 0.984375q1.4375 0 2.0625 -0.984375q0.625 -1.0 0.625 -2.953125q0 -1.9375 -0.640625 -2.90625q-0.625 -0.984375 -2.0625 -0.984375q-1.4375 0 -2.078125 0.96875q-0.625 0.96875 -0.625 2.921875zm9.0625 0q0 3.203125 -1.6875 5.015625q-1.6875 1.796875 -4.703125 1.796875q-1.875 0 -3.328125 -0.828125q-1.4375 -0.828125 -2.21875 -2.375q-0.765625 -1.546875 -0.765625 -3.609375q0 -3.203125 1.671875 -4.984375q1.6875 -1.78125 4.71875 -1.78125q1.890625 0 3.328125 0.828125q1.4375 0.8125 2.203125 2.34375q0.78125 1.53125 0.78125 3.59375zm12.234375 6.578125l-0.484375 -1.671875l-0.1875 0q-0.5625 0.90625 -1.625 1.40625q-1.046875 0.5 -2.40625 0.5q-2.296875 0 -3.46875 -1.234375q-1.171875 -1.234375 -1.171875 -3.5625l0 -8.546875l3.5625 0l0 7.65625q0 1.421875 0.5 2.140625q0.515625 0.703125 1.609375 0.703125q1.5 0 2.171875 -1.0q0.671875 -1.015625 0.671875 -3.328125l0 -6.171875l3.578125 0l0 13.109375l-2.75 0zm15.6328125 -3.890625q0 2.015625 -1.40625 3.078125q-1.390625 1.046875 -4.1875 1.046875q-1.421875 0 -2.4375 -0.203125q-1.0 -0.1875 -1.875 -0.5625l0 -2.953125q0.984375 0.46875 2.234375 0.796875q1.25 0.3125 2.203125 0.3125q1.9375 0 1.9375 -1.125q0 -0.421875 -0.265625 -0.6875q-0.25 -0.265625 -0.890625 -0.59375q-0.625 -0.34375 -1.671875 -0.78125q-1.515625 -0.640625 -2.234375 -1.171875q-0.703125 -0.546875 -1.03125 -1.234375q-0.3125 -0.703125 -0.3125 -1.71875q0 -1.75 1.34375 -2.703125q1.359375 -0.953125 3.84375 -0.953125q2.375 0 4.609375 1.03125l-1.078125 2.578125q-0.984375 -0.421875 -1.84375 -0.6875q-0.84375 -0.28125 -1.734375 -0.28125q-1.59375 0 -1.59375 0.859375q0 0.484375 0.515625 0.84375q0.515625 0.34375 2.234375 1.03125q1.53125 0.625 2.25 1.171875q0.71875 0.53125 1.046875 1.234375q0.34375 0.703125 0.34375 1.671875zm21.117188 3.890625l-3.578125 0l0 -7.65625q0 -1.421875 -0.5 -2.125q-0.5 -0.703125 -1.609375 -0.703125q-1.5 0 -2.171875 1.0q-0.65625 1.0 -0.65625 3.3125l0 6.171875l-3.578125 0l0 -13.109375l2.734375 0l0.484375 1.6875l0.1875 0q0.609375 -0.953125 1.65625 -1.4375q1.046875 -0.484375 2.375 -0.484375q2.296875 0 3.46875 1.234375q1.1875 1.234375 1.1875 3.5625l0 8.546875zm9.1015625 -10.8125q-1.125 0 -1.78125 0.734375q-0.640625 0.71875 -0.734375 2.03125l5.015625 0q-0.015625 -1.3125 -0.6875 -2.03125q-0.671875 -0.734375 -1.8125 -0.734375zm0.515625 11.046875q-3.171875 0 -4.953125 -1.75q-1.78125 -1.75 -1.78125 -4.9375q0 -3.296875 1.640625 -5.09375q1.65625 -1.796875 4.5625 -1.796875q2.78125 0 4.328125 1.578125q1.546875 1.578125 1.546875 4.375l0 1.734375l-8.453125 0q0.0625 1.515625 0.90625 2.375q0.84375 0.859375 2.359375 0.859375q1.1875 0 2.234375 -0.25q1.0625 -0.25 2.203125 -0.78125l0 2.765625q-0.9375 0.46875 -2.0 0.6875q-1.0625 0.234375 -2.59375 0.234375zm17.601562 -0.234375l-5.0 -13.109375l3.734375 0l2.53125 7.46875q0.421875 1.421875 0.53125 2.6875l0.078125 0q0.046875 -1.125 0.515625 -2.6875l2.53125 -7.46875l3.734375 0l-5.0 13.109375l-3.65625 0zm15.949219 -10.8125q-1.125 0 -1.78125 0.734375q-0.640625 0.71875 -0.734375 2.03125l5.015625 0q-0.015625 -1.3125 -0.6875 -2.03125q-0.671875 -0.734375 -1.8125 -0.734375zm0.515625 11.046875q-3.171875 0 -4.953125 -1.75q-1.78125 -1.75 -1.78125 -4.9375q0 -3.296875 1.640625 -5.09375q1.65625 -1.796875 4.5625 -1.796875q2.78125 0 4.328125 1.578125q1.546875 1.578125 1.546875 4.375l0 1.734375l-8.453125 0q0.0625 1.515625 0.90625 2.375q0.84375 0.859375 2.359375 0.859375q1.1875 0 2.234375 -0.25q1.0625 -0.25 2.203125 -0.78125l0 2.765625q-0.9375 0.46875 -2.0 0.6875q-1.0625 0.234375 -2.59375 0.234375zm15.5546875 -13.578125q0.734375 0 1.203125 0.09375l-0.265625 3.359375q-0.4375 -0.125 -1.046875 -0.125q-1.71875 0 -2.671875 0.890625q-0.953125 0.875 -0.953125 2.453125l0 6.671875l-3.578125 0l0 -13.109375l2.703125 0l0.53125 2.203125l0.171875 0q0.609375 -1.09375 1.640625 -1.765625q1.046875 -0.671875 2.265625 -0.671875zm10.8984375 0q0.734375 0 1.203125 0.09375l-0.265625 3.359375q-0.4375 -0.125 -1.046875 -0.125q-1.71875 0 -2.671875 0.890625q-0.953125 0.875 -0.953125 2.453125l0 6.671875l-3.578125 0l0 -13.109375l2.703125 0l0.53125 2.203125l0.171875 0q0.609375 -1.09375 1.640625 -1.765625q1.046875 -0.671875 2.265625 -0.671875zm9.0078125 2.53125q-1.125 0 -1.78125 0.734375q-0.640625 0.71875 -0.734375 2.03125l5.015625 0q-0.015625 -1.3125 -0.6875 -2.03125q-0.671875 -0.734375 -1.8125 -0.734375zm0.515625 11.046875q-3.171875 0 -4.953125 -1.75q-1.78125 -1.75 -1.78125 -4.9375q0 -3.296875 1.640625 -5.09375q1.65625 -1.796875 4.5625 -1.796875q2.78125 0 4.328125 1.578125q1.546875 1.578125 1.546875 4.375l0 1.734375l-8.453125 0q0.0625 1.515625 0.90625 2.375q0.84375 0.859375 2.359375 0.859375q1.1875 0 2.234375 -0.25q1.0625 -0.25 2.203125 -0.78125l0 2.765625q-0.9375 0.46875 -2.0 0.6875q-1.0625 0.234375 -2.59375 0.234375zm17.367188 -0.234375l-10.359375 0l0 -2.109375l6.078125 -8.265625l-5.703125 0l0 -2.734375l9.765625 0l0 2.328125l-5.90625 8.046875l6.125 0l0 2.734375zm16.019531 0.234375q-2.3125 0 -3.625 -1.671875l-0.1875 0q0.1875 1.640625 0.1875 1.890625l0 5.3125l-3.578125 0l0 -18.875l2.90625 0l0.5 1.703125l0.171875 0q1.25 -1.9375 3.71875 -1.9375q2.3125 0 3.625 1.796875q1.3125 1.78125 1.3125 4.96875q0 2.09375 -0.625 3.640625q-0.609375 1.546875 -1.75 2.359375q-1.125 0.8125 -2.65625 0.8125zm-1.0625 -10.71875q-1.328125 0 -1.9375 0.8125q-0.609375 0.8125 -0.625 2.6875l0 0.390625q0 2.109375 0.625 3.03125q0.625 0.90625 1.984375 0.90625q2.40625 0 2.40625 -3.96875q0 -1.9375 -0.59375 -2.890625q-0.59375 -0.96875 -1.859375 -0.96875zm17.375 10.484375l-0.703125 -1.78125l-0.09375 0q-0.890625 1.140625 -1.859375 1.578125q-0.953125 0.4375 -2.484375 0.4375q-1.890625 0 -2.96875 -1.078125q-1.078125 -1.078125 -1.078125 -3.078125q0 -2.078125 1.453125 -3.0625q1.453125 -1.0 4.40625 -1.109375l2.265625 -0.0625l0 -0.578125q0 -1.984375 -2.03125 -1.984375q-1.578125 0 -3.703125 0.9375l-1.171875 -2.40625q2.25 -1.1875 5.015625 -1.1875q2.625 0 4.03125 1.15625q1.40625 1.140625 1.40625 3.484375l0 8.734375l-2.484375 0zm-1.0625 -6.078125l-1.375 0.046875q-1.5625 0.046875 -2.328125 0.5625q-0.765625 0.515625 -0.765625 1.578125q0 1.515625 1.734375 1.515625q1.25 0 1.984375 -0.71875q0.75 -0.71875 0.75 -1.90625l0 -1.078125zm16.371094 2.1875q0 2.015625 -1.40625 3.078125q-1.390625 1.046875 -4.1875 1.046875q-1.421875 0 -2.4375 -0.203125q-1.0 -0.1875 -1.875 -0.5625l0 -2.953125q0.984375 0.46875 2.234375 0.796875q1.25 0.3125 2.203125 0.3125q1.9375 0 1.9375 -1.125q0 -0.421875 -0.265625 -0.6875q-0.25 -0.265625 -0.890625 -0.59375q-0.625 -0.34375 -1.671875 -0.78125q-1.515625 -0.640625 -2.234375 -1.171875q-0.703125 -0.546875 -1.03125 -1.234375q-0.3125 -0.703125 -0.3125 -1.71875q0 -1.75 1.34375 -2.703125q1.359375 -0.953125 3.84375 -0.953125q2.375 0 4.609375 1.03125l-1.078125 2.578125q-0.984375 -0.421875 -1.84375 -0.6875q-0.84375 -0.28125 -1.734375 -0.28125q-1.59375 0 -1.59375 0.859375q0 0.484375 0.515625 0.84375q0.515625 0.34375 2.234375 1.03125q1.53125 0.625 2.25 1.171875q0.71875 0.53125 1.046875 1.234375q0.34375 0.703125 0.34375 1.671875z" fill-rule="nonzero"></path><path fill="#ffffff" d="m537.7858 201.54001l-0.703125 -1.78125l-0.09375 0q-0.890625 1.140625 -1.859375 1.578125q-0.953125 0.4375 -2.484375 0.4375q-1.890625 0 -2.96875 -1.078125q-1.078125 -1.078125 -1.078125 -3.078125q0 -2.078125 1.453125 -3.0625q1.453125 -1.0 4.40625 -1.109375l2.265625 -0.0625l0 -0.578125q0 -1.984375 -2.03125 -1.984375q-1.578125 0 -3.703125 0.9375l-1.171875 -2.40625q2.25 -1.1875 5.015625 -1.1875q2.625 0 4.03125 1.15625q1.40625 1.140625 1.40625 3.484375l0 8.734375l-2.484375 0zm-1.0625 -6.078125l-1.375 0.046875q-1.5625 0.046875 -2.328125 0.5625q-0.765625 0.515625 -0.765625 1.578125q0 1.515625 1.734375 1.515625q1.25 0 1.984375 -0.71875q0.75 -0.71875 0.75 -1.90625l0 -1.078125zm16.511719 6.078125l-0.484375 -1.671875l-0.1875 0q-0.5625 0.90625 -1.625 1.40625q-1.046875 0.5 -2.40625 0.5q-2.296875 0 -3.46875 -1.234375q-1.171875 -1.234375 -1.171875 -3.5625l0 -8.546875l3.5625 0l0 7.65625q0 1.421875 0.5 2.140625q0.515625 0.703125 1.609375 0.703125q1.5 0 2.171875 -1.0q0.671875 -1.015625 0.671875 -3.328125l0 -6.171875l3.578125 0l0 13.109375l-2.75 0zm5.4453125 5.765625q-1.375 0 -2.359375 -0.296875l0 -2.8125q0.8125 0.234375 1.671875 0.234375q0.90625 0 1.3125 -0.515625q0.421875 -0.5 0.421875 -1.484375l0 -14.0l3.578125 0l0 14.53125q0 2.078125 -1.21875 3.203125q-1.203125 1.140625 -3.40625 1.140625zm0.890625 -22.25q0 -1.75 1.953125 -1.75q1.9375 0 1.9375 1.75q0 0.828125 -0.484375 1.296875q-0.484375 0.453125 -1.453125 0.453125q-1.953125 0 -1.953125 -1.75zm10.324219 9.90625q0 1.953125 0.640625 2.953125q0.640625 0.984375 2.078125 0.984375q1.4375 0 2.0625 -0.984375q0.625 -1.0 0.625 -2.953125q0 -1.9375 -0.640625 -2.90625q-0.625 -0.984375 -2.0625 -0.984375q-1.4375 0 -2.078125 0.96875q-0.625 0.96875 -0.625 2.921875zm9.0625 0q0 3.203125 -1.6875 5.015625q-1.6875 1.796875 -4.703125 1.796875q-1.875 0 -3.328125 -0.828125q-1.4375 -0.828125 -2.21875 -2.375q-0.765625 -1.546875 -0.765625 -3.609375q0 -3.203125 1.671875 -4.984375q1.6875 -1.78125 4.71875 -1.78125q1.890625 0 3.328125 0.828125q1.4375 0.8125 2.203125 2.34375q0.78125 1.53125 0.78125 3.59375zm12.234375 6.578125l-0.484375 -1.671875l-0.1875 0q-0.5625 0.90625 -1.625 1.40625q-1.046875 0.5 -2.40625 0.5q-2.296875 0 -3.46875 -1.234375q-1.171875 -1.234375 -1.171875 -3.5625l0 -8.546875l3.5625 0l0 7.65625q0 1.421875 0.5 2.140625q0.515625 0.703125 1.609375 0.703125q1.5 0 2.171875 -1.0q0.671875 -1.015625 0.671875 -3.328125l0 -6.171875l3.578125 0l0 13.109375l-2.75 0zm13.8046875 -13.34375q0.734375 0 1.203125 0.09375l-0.265625 3.359375q-0.4375 -0.125 -1.046875 -0.125q-1.71875 0 -2.671875 0.890625q-0.953125 0.875 -0.953125 2.453125l0 6.671875l-3.578125 0l0 -13.109375l2.703125 0l0.53125 2.203125l0.171875 0q0.609375 -1.09375 1.640625 -1.765625q1.046875 -0.671875 2.265625 -0.671875zm7.7421875 13.578125q-2.3125 0 -3.640625 -1.796875q-1.3125 -1.796875 -1.3125 -4.96875q0 -3.21875 1.34375 -5.015625q1.34375 -1.796875 3.703125 -1.796875q2.46875 0 3.765625 1.921875l0.125 0q-0.28125 -1.46875 -0.28125 -2.625l0 -4.1875l3.59375 0l0 18.234375l-2.75 0l-0.6875 -1.703125l-0.15625 0q-1.21875 1.9375 -3.703125 1.9375zm1.25 -2.84375q1.375 0 2.0 -0.796875q0.640625 -0.796875 0.703125 -2.71875l0 -0.375q0 -2.109375 -0.65625 -3.015625q-0.640625 -0.921875 -2.109375 -0.921875q-1.1875 0 -1.859375 1.015625q-0.65625 1.0 -0.65625 2.9375q0 1.9375 0.65625 2.90625q0.671875 0.96875 1.921875 0.96875zm12.671875 -14.53125l0.15625 0.265625q-0.578125 2.3125 -2.0625 5.609375l-2.5625 0q0.8125 -3.46875 1.171875 -5.875l3.296875 0zm14.40625 17.140625l-3.578125 0l0 -7.65625q0 -2.828125 -2.109375 -2.828125q-1.5 0 -2.171875 1.015625q-0.65625 1.015625 -0.65625 3.296875l0 6.171875l-3.578125 0l0 -18.234375l3.578125 0l0 3.71875q0 0.421875 -0.078125 2.03125l-0.09375 1.0625l0.1875 0q1.203125 -1.921875 3.796875 -1.921875q2.3125 0 3.5 1.25q1.203125 1.234375 1.203125 3.546875l0 8.546875zm12.9609375 0l-0.484375 -1.671875l-0.1875 0q-0.5625 0.90625 -1.625 1.40625q-1.046875 0.5 -2.40625 0.5q-2.296875 0 -3.46875 -1.234375q-1.171875 -1.234375 -1.171875 -3.5625l0 -8.546875l3.5625 0l0 7.65625q0 1.421875 0.5 2.140625q0.515625 0.703125 1.609375 0.703125q1.5 0 2.171875 -1.0q0.671875 -1.015625 0.671875 -3.328125l0 -6.171875l3.578125 0l0 13.109375l-2.75 0zm6.3359375 -16.484375q0 -1.75 1.953125 -1.75q1.9375 0 1.9375 1.75q0 0.828125 -0.484375 1.296875q-0.484375 0.453125 -1.453125 0.453125q-1.953125 0 -1.953125 -1.75zm3.734375 16.484375l-3.578125 0l0 -13.109375l3.578125 0l0 13.109375z" fill-rule="nonzero"></path><path fill="#ffffff" d="m529.9421 255.54l0 -17.140625l1.984375 0l0 17.140625l-1.984375 0zm6.6914062 0l0 -17.140625l1.984375 0l0 17.140625l-1.984375 0zm12.894531 -17.140625l-6.375 17.140625l-1.953125 0l6.390625 -17.140625l1.9375 0zm16.171875 1.546875q-2.8125 0 -4.453125 1.875q-1.640625 1.875 -1.640625 5.15625q0 3.359375 1.578125 5.203125q1.578125 1.828125 4.5 1.828125q1.796875 0 4.09375 -0.65625l0 1.75q-1.78125 0.671875 -4.40625 0.671875q-3.78125 0 -5.84375 -2.296875q-2.046875 -2.296875 -2.046875 -6.53125q0 -2.640625 0.984375 -4.625q1.0 -2.0 2.859375 -3.078125q1.875 -1.078125 4.40625 -1.078125q2.6875 0 4.703125 0.984375l-0.84375 1.703125q-1.9375 -0.90625 -3.890625 -0.90625zm12.9375 15.828125q-2.84375 0 -4.5 -1.734375q-1.640625 -1.734375 -1.640625 -4.8125q0 -3.109375 1.53125 -4.9375q1.53125 -1.828125 4.109375 -1.828125q2.421875 0 3.828125 1.59375q1.40625 1.578125 1.40625 4.1875l0 1.21875l-8.859375 0q0.0625 2.265625 1.140625 3.4375q1.09375 1.171875 3.0625 1.171875q2.078125 0 4.09375 -0.859375l0 1.734375q-1.03125 0.4375 -1.953125 0.625q-0.90625 0.203125 -2.21875 0.203125zm-0.515625 -11.6875q-1.546875 0 -2.46875 1.015625q-0.921875 1.0 -1.09375 2.78125l6.71875 0q0 -1.84375 -0.828125 -2.8125q-0.8125 -0.984375 -2.328125 -0.984375zm19.652344 10.0625q1.9375 0 2.828125 -1.046875q0.890625 -1.046875 0.953125 -3.515625l0 -0.4375q0 -2.6875 -0.921875 -3.875q-0.90625 -1.1875 -2.890625 -1.1875q-1.703125 0 -2.625 1.328125q-0.90625 1.328125 -0.90625 3.765625q0 2.421875 0.890625 3.703125q0.90625 1.265625 2.671875 1.265625zm-0.296875 1.625q-2.484375 0 -3.890625 -1.75q-1.390625 -1.75 -1.390625 -4.875q0 -3.15625 1.40625 -4.921875q1.40625 -1.765625 3.921875 -1.765625q2.640625 0 4.046875 1.984375l0.109375 0l0.28125 -1.75l1.53125 0l0 18.60939l-1.9375 0l0 -5.5000153q0 -1.171875 0.125 -1.984375l-0.15625 0q-1.34375 1.953125 -4.046875 1.953125zm11.972656 -13.078125l0 8.328125q0 1.578125 0.71875 2.359375q0.71875 0.765625 2.234375 0.765625q2.015625 0 2.9375 -1.09375q0.9375 -1.109375 0.9375 -3.609375l0 -6.75l1.953125 0l0 12.84375l-1.609375 0l-0.28125 -1.71875l-0.109375 0q-0.59375 0.9375 -1.65625 1.453125q-1.0625 0.5 -2.421875 0.5q-2.34375 0 -3.515625 -1.109375q-1.15625 -1.125 -1.15625 -3.5625l0 -8.40625l1.96875 0zm14.855469 12.84375l-1.953125 0l0 -12.84375l1.953125 0l0 12.84375zm-2.109375 -16.328125q0 -0.671875 0.328125 -0.96875q0.328125 -0.3125 0.8125 -0.3125q0.46875 0 0.8125 0.3125q0.34375 0.3125 0.34375 0.96875q0 0.65625 -0.34375 0.984375q-0.34375 0.3125 -0.8125 0.3125q-0.484375 0 -0.8125 -0.3125q-0.328125 -0.328125 -0.328125 -0.984375zm17.882812 16.5625q-2.84375 0 -4.5 -1.734375q-1.640625 -1.734375 -1.640625 -4.8125q0 -3.109375 1.53125 -4.9375q1.53125 -1.828125 4.109375 -1.828125q2.421875 0 3.828125 1.59375q1.40625 1.578125 1.40625 4.1875l0 1.21875l-8.859375 0q0.0625 2.265625 1.140625 3.4375q1.09375 1.171875 3.0625 1.171875q2.078125 0 4.09375 -0.859375l0 1.734375q-1.03125 0.4375 -1.953125 0.625q-0.90625 0.203125 -2.21875 0.203125zm-0.515625 -11.6875q-1.546875 0 -2.46875 1.015625q-0.921875 1.0 -1.09375 2.78125l6.71875 0q0 -1.84375 -0.828125 -2.8125q-0.8125 -0.984375 -2.328125 -0.984375zm16.839844 7.953125q0 1.78125 -1.34375 2.765625q-1.328125 0.96875 -3.734375 0.96875q-2.5625 0 -3.984375 -0.8125l0 -1.796875q0.921875 0.46875 1.984375 0.734375q1.0625 0.265625 2.046875 0.265625q1.515625 0 2.328125 -0.484375q0.828125 -0.484375 0.828125 -1.484375q0 -0.75 -0.65625 -1.28125q-0.640625 -0.53125 -2.53125 -1.265625q-1.78125 -0.65625 -2.546875 -1.15625q-0.75 -0.5 -1.125 -1.125q-0.359375 -0.640625 -0.359375 -1.515625q0 -1.578125 1.265625 -2.484375q1.28125 -0.90625 3.515625 -0.90625q2.0625 0 4.046875 0.84375l-0.6875 1.578125q-1.9375 -0.796875 -3.5 -0.796875q-1.390625 0 -2.09375 0.4375q-0.703125 0.4375 -0.703125 1.1875q0 0.515625 0.265625 0.890625q0.265625 0.359375 0.84375 0.6875q0.59375 0.328125 2.25 0.953125q2.296875 0.828125 3.09375 1.671875q0.796875 0.84375 0.796875 2.125zm7.3242188 2.125q0.515625 0 0.984375 -0.078125q0.484375 -0.078125 0.765625 -0.15625l0 1.484375q-0.3125 0.15625 -0.9375 0.25q-0.609375 0.109375 -1.09375 0.109375q-3.734375 0 -3.734375 -3.921875l0 -7.640625l-1.84375 0l0 -0.9375l1.84375 -0.8125l0.828125 -2.75l1.125 0l0 2.984375l3.71875 0l0 1.515625l-3.71875 0l0 7.546875q0 1.171875 0.546875 1.796875q0.546875 0.609375 1.515625 0.609375zm16.347656 -9.953125l-3.28125 0l0 11.328125l-1.9375 0l0 -11.328125l-2.296875 0l0 -0.890625l2.296875 -0.703125l0 -0.703125q0 -4.734375 4.140625 -4.734375q1.015625 0 2.390625 0.40625l-0.515625 1.5625q-1.125 -0.375 -1.921875 -0.375q-1.09375 0 -1.625 0.734375q-0.53125 0.734375 -0.53125 2.359375l0 0.828125l3.28125 0l0 1.515625zm10.2421875 11.328125l-0.390625 -1.828125l-0.09375 0q-0.96875 1.203125 -1.921875 1.640625q-0.953125 0.421875 -2.375 0.421875q-1.921875 0 -3.0 -0.984375q-1.078125 -0.984375 -1.078125 -2.796875q0 -3.890625 6.21875 -4.078125l2.171875 -0.078125l0 -0.796875q0 -1.515625 -0.65625 -2.234375q-0.640625 -0.71875 -2.0625 -0.71875q-1.609375 0 -3.640625 0.984375l-0.59375 -1.484375q0.953125 -0.515625 2.078125 -0.8125q1.125 -0.296875 2.265625 -0.296875q2.296875 0 3.40625 1.03125q1.109375 1.015625 1.109375 3.265625l0 8.765625l-1.4375 0zm-4.40625 -1.375q1.828125 0 2.859375 -0.984375q1.03125 -1.0 1.03125 -2.796875l0 -1.15625l-1.9375 0.078125q-2.328125 0.078125 -3.359375 0.71875q-1.015625 0.640625 -1.015625 1.984375q0 1.0625 0.640625 1.609375q0.640625 0.546875 1.78125 0.546875zm11.800781 1.375l-1.953125 0l0 -12.84375l1.953125 0l0 12.84375zm-2.109375 -16.328125q0 -0.671875 0.328125 -0.96875q0.328125 -0.3125 0.8125 -0.3125q0.46875 0 0.8125 0.3125q0.34375 0.3125 0.34375 0.96875q0 0.65625 -0.34375 0.984375q-0.34375 0.3125 -0.8125 0.3125q-0.484375 0 -0.8125 -0.3125q-0.328125 -0.328125 -0.328125 -0.984375zm10.3828125 14.953125q0.515625 0 0.984375 -0.078125q0.484375 -0.078125 0.765625 -0.15625l0 1.484375q-0.3125 0.15625 -0.9375 0.25q-0.609375 0.109375 -1.09375 0.109375q-3.734375 0 -3.734375 -3.921875l0 -7.640625l-1.84375 0l0 -0.9375l1.84375 -0.8125l0.828125 -2.75l1.125 0l0 2.984375l3.71875 0l0 1.515625l-3.71875 0l0 7.546875q0 1.171875 0.546875 1.796875q0.546875 0.609375 1.515625 0.609375z" fill-rule="nonzero"></path><path fill="#ffffff" d="m529.9421 309.53998l0 -17.140625l1.984375 0l0 17.140625l-1.984375 0zm6.6914062 0l0 -17.140625l1.984375 0l0 17.140625l-1.984375 0zm6.6914062 0l0 -17.140625l1.984375 0l0 17.140625l-1.984375 0zm12.894531 -17.140625l-6.375 17.140625l-1.953125 0l6.390625 -17.140625l1.9375 0zm16.171875 1.546875q-2.8125 0 -4.453125 1.875q-1.640625 1.875 -1.640625 5.15625q0 3.359375 1.578125 5.203125q1.578125 1.828125 4.5 1.828125q1.796875 0 4.09375 -0.65625l0 1.75q-1.78125 0.671875 -4.40625 0.671875q-3.78125 0 -5.84375 -2.296875q-2.046875 -2.296875 -2.046875 -6.53125q0 -2.640625 0.984375 -4.625q1.0 -2.0 2.859375 -3.078125q1.875 -1.078125 4.40625 -1.078125q2.6875 0 4.703125 0.984375l-0.84375 1.703125q-1.9375 -0.90625 -3.890625 -0.90625zm12.9375 15.828125q-2.84375 0 -4.5 -1.734375q-1.640625 -1.734375 -1.640625 -4.8125q0 -3.109375 1.53125 -4.9375q1.53125 -1.828125 4.109375 -1.828125q2.421875 0 3.828125 1.59375q1.40625 1.578125 1.40625 4.1875l0 1.21875l-8.859375 0q0.0625 2.265625 1.140625 3.4375q1.09375 1.171875 3.0625 1.171875q2.078125 0 4.09375 -0.859375l0 1.734375q-1.03125 0.4375 -1.953125 0.625q-0.90625 0.203125 -2.21875 0.203125zm-0.515625 -11.6875q-1.546875 0 -2.46875 1.015625q-0.921875 1.0 -1.09375 2.78125l6.71875 0q0 -1.84375 -0.828125 -2.8125q-0.8125 -0.984375 -2.328125 -0.984375zm19.652344 10.0625q1.9375 0 2.828125 -1.046875q0.890625 -1.046875 0.953125 -3.515625l0 -0.4375q0 -2.6875 -0.921875 -3.875q-0.90625 -1.1875 -2.890625 -1.1875q-1.703125 0 -2.625 1.328125q-0.90625 1.328125 -0.90625 3.765625q0 2.421875 0.890625 3.703125q0.90625 1.265625 2.671875 1.265625zm-0.296875 1.625q-2.484375 0 -3.890625 -1.75q-1.390625 -1.75 -1.390625 -4.875q0 -3.15625 1.40625 -4.921875q1.40625 -1.765625 3.921875 -1.765625q2.640625 0 4.046875 1.984375l0.109375 0l0.28125 -1.75l1.53125 0l0 18.609375l-1.9375 0l0 -5.5q0 -1.171875 0.125 -1.984375l-0.15625 0q-1.34375 1.953125 -4.046875 1.953125zm11.972656 -13.078125l0 8.328125q0 1.578125 0.71875 2.359375q0.71875 0.765625 2.234375 0.765625q2.015625 0 2.9375 -1.09375q0.9375 -1.109375 0.9375 -3.609375l0 -6.75l1.953125 0l0 12.84375l-1.609375 0l-0.28125 -1.71875l-0.109375 0q-0.59375 0.9375 -1.65625 1.453125q-1.0625 0.5 -2.421875 0.5q-2.34375 0 -3.515625 -1.109375q-1.15625 -1.125 -1.15625 -3.5625l0 -8.40625l1.96875 0zm14.464844 -4.296875l0.171875 0.265625q-0.296875 1.171875 -0.875 2.734375q-0.578125 1.546875 -1.203125 2.875l-1.421875 0q0.8125 -3.34375 1.1875 -5.875l2.140625 0zm4.46875 17.140625l-1.953125 0l0 -12.84375l1.953125 0l0 12.84375zm-2.109375 -16.328125q0 -0.671875 0.328125 -0.96875q0.328125 -0.3125 0.8125 -0.3125q0.46875 0 0.8125 0.3125q0.34375 0.3125 0.34375 0.96875q0 0.65625 -0.34375 0.984375q-0.34375 0.3125 -0.8125 0.3125q-0.484375 0 -0.8125 -0.3125q-0.328125 -0.328125 -0.328125 -0.984375zm8.1796875 16.328125l-1.953125 0l0 -18.234375l1.953125 0l0 18.234375zm16.210938 -13.078125q0.859375 0 1.53125 0.140625l-0.265625 1.796875q-0.796875 -0.171875 -1.40625 -0.171875q-1.5625 0 -2.671875 1.265625q-1.09375 1.265625 -1.09375 3.15625l0 6.890625l-1.953125 0l0 -12.84375l1.609375 0l0.21875 2.375l0.09375 0q0.71875 -1.25 1.71875 -1.921875q1.015625 -0.6875 2.21875 -0.6875zm9.359375 13.3125q-2.84375 0 -4.5 -1.734375q-1.640625 -1.734375 -1.640625 -4.8125q0 -3.109375 1.53125 -4.9375q1.53125 -1.828125 4.109375 -1.828125q2.421875 0 3.828125 1.59375q1.40625 1.578125 1.40625 4.1875l0 1.21875l-8.859375 0q0.0625 2.265625 1.140625 3.4375q1.09375 1.171875 3.0625 1.171875q2.078125 0 4.09375 -0.859375l0 1.734375q-1.03125 0.4375 -1.953125 0.625q-0.90625 0.203125 -2.21875 0.203125zm-0.515625 -11.6875q-1.546875 0 -2.46875 1.015625q-0.921875 1.0 -1.09375 2.78125l6.71875 0q0 -1.84375 -0.828125 -2.8125q-0.8125 -0.984375 -2.328125 -0.984375zm16.839844 7.953125q0 1.78125 -1.34375 2.765625q-1.328125 0.96875 -3.734375 0.96875q-2.5625 0 -3.984375 -0.8125l0 -1.796875q0.921875 0.46875 1.984375 0.734375q1.0625 0.265625 2.046875 0.265625q1.515625 0 2.328125 -0.484375q0.828125 -0.484375 0.828125 -1.484375q0 -0.75 -0.65625 -1.28125q-0.640625 -0.53125 -2.53125 -1.265625q-1.78125 -0.65625 -2.546875 -1.15625q-0.75 -0.5 -1.125 -1.125q-0.359375 -0.640625 -0.359375 -1.515625q0 -1.578125 1.265625 -2.484375q1.28125 -0.90625 3.515625 -0.90625q2.0625 0 4.046875 0.84375l-0.6875 1.578125q-1.9375 -0.796875 -3.5 -0.796875q-1.390625 0 -2.09375 0.4375q-0.703125 0.4375 -0.703125 1.1875q0 0.515625 0.265625 0.890625q0.265625 0.359375 0.84375 0.6875q0.59375 0.328125 2.25 0.953125q2.296875 0.828125 3.09375 1.671875q0.796875 0.84375 0.796875 2.125zm7.3242188 2.125q0.515625 0 0.984375 -0.078125q0.484375 -0.078125 0.765625 -0.15625l0 1.484375q-0.3125 0.15625 -0.9375 0.25q-0.609375 0.109375 -1.09375 0.109375q-3.734375 0 -3.734375 -3.921875l0 -7.640625l-1.84375 0l0 -0.9375l1.84375 -0.8125l0.828125 -2.75l1.125 0l0 2.984375l3.71875 0l0 1.515625l-3.71875 0l0 7.546875q0 1.171875 0.546875 1.796875q0.546875 0.609375 1.515625 0.609375zm9.738281 1.609375q-2.84375 0 -4.5 -1.734375q-1.640625 -1.734375 -1.640625 -4.8125q0 -3.109375 1.53125 -4.9375q1.53125 -1.828125 4.109375 -1.828125q2.421875 0 3.828125 1.59375q1.40625 1.578125 1.40625 4.1875l0 1.21875l-8.859375 0q0.0625 2.265625 1.140625 3.4375q1.09375 1.171875 3.0625 1.171875q2.078125 0 4.09375 -0.859375l0 1.734375q-1.03125 0.4375 -1.953125 0.625q-0.90625 0.203125 -2.21875 0.203125zm-0.515625 -11.6875q-1.546875 0 -2.46875 1.015625q-0.921875 1.0 -1.09375 2.78125l6.71875 0q0 -1.84375 -0.828125 -2.8125q-0.8125 -0.984375 -2.328125 -0.984375zm22.699219 11.453125l-0.390625 -1.828125l-0.09375 0q-0.96875 1.203125 -1.921875 1.640625q-0.953125 0.421875 -2.375 0.421875q-1.921875 0 -3.0 -0.984375q-1.078125 -0.984375 -1.078125 -2.796875q0 -3.890625 6.21875 -4.078125l2.171875 -0.078125l0 -0.796875q0 -1.515625 -0.65625 -2.234375q-0.640625 -0.71875 -2.0625 -0.71875q-1.609375 0 -3.640625 0.984375l-0.59375 -1.484375q0.953125 -0.515625 2.078125 -0.8125q1.125 -0.296875 2.265625 -0.296875q2.296875 0 3.40625 1.03125q1.109375 1.015625 1.109375 3.265625l0 8.765625l-1.4375 0zm-4.40625 -1.375q1.828125 0 2.859375 -0.984375q1.03125 -1.0 1.03125 -2.796875l0 -1.15625l-1.9375 0.078125q-2.328125 0.078125 -3.359375 0.71875q-1.015625 0.640625 -1.015625 1.984375q0 1.0625 0.640625 1.609375q0.640625 0.546875 1.78125 0.546875zm2.65625 -13.171875l-1.296875 0q-0.765625 -0.609375 -1.8125 -1.734375q-1.03125 -1.125 -1.5 -1.859375l0 -0.25l2.375 0q0.375 0.8125 1.046875 1.875q0.671875 1.0625 1.1875 1.671875l0 0.296875zm19.222656 3.21875l-3.28125 0l0 11.328125l-1.9375 0l0 -11.328125l-2.296875 0l0 -0.890625l2.296875 -0.703125l0 -0.703125q0 -4.734375 4.140625 -4.734375q1.015625 0 2.390625 0.40625l-0.515625 1.5625q-1.125 -0.375 -1.921875 -0.375q-1.09375 0 -1.625 0.734375q-0.53125 0.734375 -0.53125 2.359375l0 0.828125l3.28125 0l0 1.515625zm10.2421875 11.328125l-0.390625 -1.828125l-0.09375 0q-0.96875 1.203125 -1.921875 1.640625q-0.953125 0.421875 -2.375 0.421875q-1.921875 0 -3.0 -0.984375q-1.078125 -0.984375 -1.078125 -2.796875q0 -3.890625 6.21875 -4.078125l2.171875 -0.078125l0 -0.796875q0 -1.515625 -0.65625 -2.234375q-0.640625 -0.71875 -2.0625 -0.71875q-1.609375 0 -3.640625 0.984375l-0.59375 -1.484375q0.953125 -0.515625 2.078125 -0.8125q1.125 -0.296875 2.265625 -0.296875q2.296875 0 3.40625 1.03125q1.109375 1.015625 1.109375 3.265625l0 8.765625l-1.4375 0zm-4.40625 -1.375q1.828125 0 2.859375 -0.984375q1.03125 -1.0 1.03125 -2.796875l0 -1.15625l-1.9375 0.078125q-2.328125 0.078125 -3.359375 0.71875q-1.015625 0.640625 -1.015625 1.984375q0 1.0625 0.640625 1.609375q0.640625 0.546875 1.78125 0.546875zm11.800781 1.375l-1.953125 0l0 -12.84375l1.953125 0l0 12.84375zm-2.109375 -16.328125q0 -0.671875 0.328125 -0.96875q0.328125 -0.3125 0.8125 -0.3125q0.46875 0 0.8125 0.3125q0.34375 0.3125 0.34375 0.96875q0 0.65625 -0.34375 0.984375q-0.34375 0.3125 -0.8125 0.3125q-0.484375 0 -0.8125 -0.3125q-0.328125 -0.328125 -0.328125 -0.984375zm12.0859375 3.25q0.859375 0 1.53125 0.140625l-0.265625 1.796875q-0.796875 -0.171875 -1.40625 -0.171875q-1.5625 0 -2.671875 1.265625q-1.09375 1.265625 -1.09375 3.15625l0 6.890625l-1.953125 0l0 -12.84375l1.609375 0l0.21875 2.375l0.09375 0q0.71875 -1.25 1.71875 -1.921875q1.015625 -0.6875 2.21875 -0.6875zm9.359375 13.3125q-2.84375 0 -4.5 -1.734375q-1.640625 -1.734375 -1.640625 -4.8125q0 -3.109375 1.53125 -4.9375q1.53125 -1.828125 4.109375 -1.828125q2.421875 0 3.828125 1.59375q1.40625 1.578125 1.40625 4.1875l0 1.21875l-8.859375 0q0.0625 2.265625 1.140625 3.4375q1.09375 1.171875 3.0625 1.171875q2.078125 0 4.09375 -0.859375l0 1.734375q-1.03125 0.4375 -1.953125 0.625q-0.90625 0.203125 -2.21875 0.203125zm-0.515625 -11.6875q-1.546875 0 -2.46875 1.015625q-0.921875 1.0 -1.09375 2.78125l6.71875 0q0 -1.84375 -0.828125 -2.8125q-0.8125 -0.984375 -2.328125 -0.984375z" fill-rule="nonzero"></path><path fill="#ffffff" d="m529.9421 363.53998l0 -17.140625l1.984375 0l0 17.140625l-1.984375 0zm16.472656 -17.140625l2.140625 0l-6.171875 17.140625l-1.96875 0l-6.140625 -17.140625l2.109375 0l3.9375 11.09375q0.6875 1.90625 1.078125 3.71875q0.421875 -1.90625 1.109375 -3.796875l3.90625 -11.015625zm10.707031 0l-6.375 17.140625l-1.953125 0l6.390625 -17.140625l1.9375 0zm10.828125 10.015625l0 7.125l-1.984375 0l0 -17.140625l4.703125 0q3.140625 0 4.640625 1.21875q1.515625 1.203125 1.515625 3.625q0 3.40625 -3.4375 4.59375l4.640625 7.703125l-2.34375 0l-4.15625 -7.125l-3.578125 0zm0 -1.71875l2.734375 0q2.109375 0 3.09375 -0.828125q0.984375 -0.84375 0.984375 -2.515625q0 -1.703125 -1.0 -2.453125q-1.0 -0.75 -3.21875 -0.75l-2.59375 0l0 6.546875zm17.976562 9.078125q-2.84375 0 -4.5 -1.734375q-1.640625 -1.734375 -1.640625 -4.8125q0 -3.109375 1.53125 -4.9375q1.53125 -1.828125 4.109375 -1.828125q2.421875 0 3.828125 1.59375q1.40625 1.578125 1.40625 4.1875l0 1.21875l-8.859375 0q0.0625 2.265625 1.140625 3.4375q1.09375 1.171875 3.0625 1.171875q2.078125 0 4.09375 -0.859375l0 1.734375q-1.03125 0.4375 -1.953125 0.625q-0.90625 0.203125 -2.21875 0.203125zm-0.515625 -11.6875q-1.546875 0 -2.46875 1.015625q-0.921875 1.0 -1.09375 2.78125l6.71875 0q0 -1.84375 -0.828125 -2.8125q-0.8125 -0.984375 -2.328125 -0.984375zm-1.359375 -3.390625q0.5625 -0.71875 1.203125 -1.75q0.65625 -1.03125 1.03125 -1.796875l2.375 0l0 0.25q-0.515625 0.765625 -1.546875 1.875q-1.015625 1.109375 -1.765625 1.71875l-1.296875 0l0 -0.296875zm14.074219 13.46875q0.515625 0 0.984375 -0.078125q0.484375 -0.078125 0.765625 -0.15625l0 1.484375q-0.3125 0.15625 -0.9375 0.25q-0.609375 0.109375 -1.09375 0.109375q-3.734375 0 -3.734375 -3.921875l0 -7.640625l-1.84375 0l0 -0.9375l1.84375 -0.8125l0.828125 -2.75l1.125 0l0 2.984375l3.71875 0l0 1.515625l-3.71875 0l0 7.546875q0 1.171875 0.546875 1.796875q0.546875 0.609375 1.515625 0.609375zm10.175781 -11.703125q0.859375 0 1.53125 0.140625l-0.265625 1.796875q-0.796875 -0.171875 -1.40625 -0.171875q-1.5625 0 -2.671875 1.265625q-1.09375 1.265625 -1.09375 3.15625l0 6.890625l-1.953125 0l0 -12.84375l1.609375 0l0.21875 2.375l0.09375 0q0.71875 -1.25 1.71875 -1.921875q1.015625 -0.6875 2.21875 -0.6875zm15.03125 6.640625q0 3.140625 -1.59375 4.90625q-1.578125 1.765625 -4.359375 1.765625q-1.734375 0 -3.078125 -0.8125q-1.328125 -0.8125 -2.0625 -2.3125q-0.71875 -1.515625 -0.71875 -3.546875q0 -3.140625 1.5625 -4.890625q1.578125 -1.75 4.375 -1.75q2.6875 0 4.28125 1.796875q1.59375 1.78125 1.59375 4.84375zm-9.796875 0q0 2.46875 0.984375 3.765625q0.984375 1.28125 2.90625 1.28125q1.90625 0 2.890625 -1.28125q1.0 -1.296875 1.0 -3.765625q0 -2.453125 -1.0 -3.71875q-0.984375 -1.265625 -2.921875 -1.265625q-1.90625 0 -2.890625 1.25q-0.96875 1.25 -0.96875 3.734375zm19.183594 6.671875q-1.265625 0 -2.296875 -0.453125q-1.03125 -0.46875 -1.734375 -1.4375l-0.140625 0q0.140625 1.125 0.140625 2.140625l0 5.28125l-1.953125 0l0 -18.609375l1.578125 0l0.28125 1.75l0.09375 0q0.75 -1.046875 1.734375 -1.515625q1.0 -0.46875 2.296875 -0.46875q2.546875 0 3.9375 1.75q1.390625 1.734375 1.390625 4.890625q0 3.171875 -1.421875 4.921875q-1.40625 1.75 -3.90625 1.75zm-0.28125 -11.65625q-1.96875 0 -2.859375 1.09375q-0.875 1.078125 -0.890625 3.453125l0 0.4375q0 2.703125 0.890625 3.875q0.90625 1.171875 2.90625 1.171875q1.65625 0 2.59375 -1.34375q0.953125 -1.359375 0.953125 -3.71875q0 -2.40625 -0.953125 -3.6875q-0.9375 -1.28125 -2.640625 -1.28125zm10.957031 11.421875l-1.953125 0l0 -18.234375l1.953125 0l0 18.234375zm12.0234375 0l-0.390625 -1.828125l-0.09375 0q-0.96875 1.203125 -1.921875 1.640625q-0.953125 0.421875 -2.375 0.421875q-1.921875 0 -3.0 -0.984375q-1.078125 -0.984375 -1.078125 -2.796875q0 -3.890625 6.21875 -4.078125l2.171875 -0.078125l0 -0.796875q0 -1.515625 -0.65625 -2.234375q-0.640625 -0.71875 -2.0625 -0.71875q-1.609375 0 -3.640625 0.984375l-0.59375 -1.484375q0.953125 -0.515625 2.078125 -0.8125q1.125 -0.296875 2.265625 -0.296875q2.296875 0 3.40625 1.03125q1.109375 1.015625 1.109375 3.265625l0 8.765625l-1.4375 0zm-4.40625 -1.375q1.828125 0 2.859375 -0.984375q1.03125 -1.0 1.03125 -2.796875l0 -1.15625l-1.9375 0.078125q-2.328125 0.078125 -3.359375 0.71875q-1.015625 0.640625 -1.015625 1.984375q0 1.0625 0.640625 1.609375q0.640625 0.546875 1.78125 0.546875zm18.644531 1.375l0 -8.3125q0 -1.5625 -0.71875 -2.328125q-0.71875 -0.78125 -2.234375 -0.78125q-2.015625 0 -2.953125 1.09375q-0.9375 1.078125 -0.9375 3.59375l0 6.734375l-1.953125 0l0 -12.84375l1.578125 0l0.328125 1.75l0.09375 0q0.59375 -0.9375 1.671875 -1.453125q1.078125 -0.53125 2.40625 -0.53125q2.3125 0 3.484375 1.125q1.171875 1.109375 1.171875 3.578125l0 8.375l-1.9375 0zm14.730469 0l0 -8.3125q0 -1.5625 -0.71875 -2.328125q-0.71875 -0.78125 -2.234375 -0.78125q-2.015625 0 -2.953125 1.09375q-0.9375 1.078125 -0.9375 3.59375l0 6.734375l-1.953125 0l0 -12.84375l1.578125 0l0.328125 1.75l0.09375 0q0.59375 -0.9375 1.671875 -1.453125q1.078125 -0.53125 2.40625 -0.53125q2.3125 0 3.484375 1.125q1.171875 1.109375 1.171875 3.578125l0 8.375l-1.9375 0zm7.8867188 0l-1.953125 0l0 -12.84375l1.953125 0l0 12.84375zm-2.109375 -16.328125q0 -0.671875 0.328125 -0.96875q0.328125 -0.3125 0.8125 -0.3125q0.46875 0 0.8125 0.3125q0.34375 0.3125 0.34375 0.96875q0 0.65625 -0.34375 0.984375q-0.34375 0.3125 -0.8125 0.3125q-0.484375 0 -0.8125 -0.3125q-0.328125 -0.328125 -0.328125 -0.984375zm15.0234375 16.328125l0 -8.3125q0 -1.5625 -0.71875 -2.328125q-0.71875 -0.78125 -2.234375 -0.78125q-2.015625 0 -2.953125 1.09375q-0.9375 1.078125 -0.9375 3.59375l0 6.734375l-1.953125 0l0 -12.84375l1.578125 0l0.328125 1.75l0.09375 0q0.59375 -0.9375 1.671875 -1.453125q1.078125 -0.53125 2.40625 -0.53125q2.3125 0 3.484375 1.125q1.171875 1.109375 1.171875 3.578125l0 8.375l-1.9375 0zm16.449219 -12.84375l0 1.234375l-2.375 0.28125q0.328125 0.40625 0.578125 1.078125q0.265625 0.65625 0.265625 1.484375q0 1.890625 -1.296875 3.015625q-1.28125 1.125 -3.53125 1.125q-0.578125 0 -1.078125 -0.09375q-1.25 0.65625 -1.25 1.640625q0 0.53125 0.4375 0.78125q0.4375 0.25 1.484375 0.25l2.28125 0q2.078125 0 3.1875 0.890625q1.125 0.875 1.125 2.546875q0 2.140625 -1.71875 3.25q-1.703125 1.125 -4.984375 1.125q-2.515625 0 -3.890625 -0.9375q-1.359375 -0.9375 -1.359375 -2.640625q0 -1.171875 0.75 -2.03125q0.75 -0.859375 2.109375 -1.171875q-0.484375 -0.21875 -0.828125 -0.6875q-0.328125 -0.46875 -0.328125 -1.09375q0 -0.703125 0.375 -1.21875q0.375 -0.53125 1.1875 -1.03125q-1.0 -0.40625 -1.625 -1.390625q-0.625 -0.984375 -0.625 -2.25q0 -2.109375 1.265625 -3.25q1.265625 -1.140625 3.578125 -1.140625q1.015625 0 1.828125 0.234375l4.4375 0zm-10.25 15.0q0 1.046875 0.875 1.578125q0.890625 0.546875 2.53125 0.546875q2.453125 0 3.625 -0.734375q1.171875 -0.734375 1.171875 -1.984375q0 -1.046875 -0.640625 -1.453125q-0.640625 -0.40625 -2.421875 -0.40625l-2.328125 0q-1.328125 0 -2.078125 0.625q-0.734375 0.640625 -0.734375 1.828125zm1.0625 -10.890625q0 1.34375 0.75 2.046875q0.765625 0.6875 2.125 0.6875q2.859375 0 2.859375 -2.765625q0 -2.890625 -2.890625 -2.890625q-1.375 0 -2.109375 0.734375q-0.734375 0.734375 -0.734375 2.1875z" fill-rule="nonzero"></path></g></svg>

