<?xml version="1.0" standalone="yes"?>

<svg version="1.1" viewBox="0.0 0.0 960.0 540.0" fill="none" stroke="none" stroke-linecap="square" stroke-miterlimit="10" xmlns="http://www.w3.org/2000/svg" xmlns:xlink="http://www.w3.org/1999/xlink"><clipPath id="g10c8bc1927_1_167.0"><path d="m0 0l960.0 0l0 540.0l-960.0 0l0 -540.0z" clip-rule="nonzero"></path></clipPath><g clip-path="url(#g10c8bc1927_1_167.0)"><path fill="#ffffff" d="m0 0l960.0 0l0 540.0l-960.0 0z" fill-rule="nonzero"></path><path fill="#4db6ac" d="m-0.007874016 529.7323l960.0 0l0 10.2677l-960.0 0z" fill-rule="nonzero"></path><path fill="#000000" fill-opacity="0.0" d="m32.72441 6.7217846l894.55115 0l0 74.267715l-894.55115 0z" fill-rule="nonzero"></path><path fill="#ef6c00" d="m44.41191 28.208033l6.046875 0l0 33.59375l-6.046875 0l0 -33.59375zm11.4240265 0l6.046875 0l0 33.59375l-6.046875 0l0 -33.59375zm21.986526 -0.578125l4.359375 1.671875l-14.0625 39.21875l-4.40625 -1.671875l14.109375 -39.21875zm34.560806 32.828125q-1.25 1.0625 -3.34375 1.53125q-2.078125 0.484375 -4.140625 0.484375q-2.59375 0 -4.828125 -0.890625q-2.234375 -0.890625 -3.921875 -2.953125q-1.671875 -2.0625 -2.640625 -5.421875q-0.953125 -3.359375 -0.953125 -8.25q0 -5.09375 1.078125 -8.453125q1.078125 -3.359375 2.828125 -5.343752q1.765625 -2.0 4.015625 -2.8125q2.25 -0.8125 4.5625 -0.8125q2.34375 0 4.09375 0.390625q1.765625 0.375 2.859375 0.84375l-1.203125 5.328127q-0.90625 -0.46875 -2.140625 -0.734375q-1.21875 -0.265625 -2.890625 -0.265625q-3.3125 0 -5.09375 2.890625q-1.765625 2.875 -1.765625 9.015625q0 2.640625 0.40625 4.828125q0.40625 2.171875 1.28125 3.765625q0.890625 1.578125 2.265625 2.453125q1.375 0.859375 3.28125 0.859375q1.6875 0 2.890625 -0.453125q1.203125 -0.46875 2.15625 -1.09375l1.203125 5.09375zm18.99855 -0.4375q-1.1875 1.0625 -3.265625 1.734375q-2.0625 0.671875 -4.3125 0.671875q-2.5 0 -4.296875 -0.859375q-1.796875 -0.875 -2.953125 -2.5q-1.15625 -1.640625 -1.703125 -3.96875q-0.546875 -2.328125 -0.546875 -5.296875q0 -6.484375 2.5625 -9.578125q2.578125 -3.09375 7.125 -3.09375q1.546875 0 2.984375 0.453125q1.4375 0.453125 2.5625 1.546875q1.125 1.078125 1.8125 2.875q0.703125 1.796875 0.703125 4.53125q0 1.0625 -0.125 2.265625q-0.109375 1.1875 -0.34375 2.578125l-11.671875 0q0.09375 2.984375 1.25 4.578125q1.15625 1.578125 3.703125 1.578125q1.53125 0 2.796875 -0.484375q1.28125 -0.484375 1.953125 -1.015625l1.765625 3.984375zm-7.484375 -18.0q-1.828125 0 -2.734375 1.46875q-0.90625 1.46875 -1.046875 4.109375l6.609375 0q0.15625 -2.734375 -0.5625 -4.15625q-0.71875 -1.421875 -2.265625 -1.421875zm38.83719 29.375004l-5.71875 0l0 -11.281254l-0.1875 0q-0.671875 1.0625 -1.75 1.703125q-1.078125 0.65625 -2.90625 0.65625q-3.546875 0 -5.515625 -3.015625q-1.96875 -3.03125 -1.96875 -9.171875q0 -6.4375 2.734375 -9.71875q2.734375 -3.296875 7.78125 -3.296875q2.15625 0 4.234375 0.4375q2.09375 0.4375 3.296875 0.953125l0 32.73438zm-5.71875 -28.453129q-1.0 -0.578125 -2.6875 -0.578125q-1.875 0 -2.8125 1.796875q-0.921875 1.796875 -0.921875 5.875q0 7.34375 3.265625 7.34375q1.28125 0 2.03125 -0.640625q0.75 -0.65625 1.125 -1.84375l0 -11.953125zm15.310913 -5.140625l0 14.359375q0 2.828125 0.53125 3.9375q0.53125 1.09375 1.921875 1.09375q1.34375 0 2.25 -0.984375q0.921875 -0.984375 1.296875 -2.375l0 -16.03125l5.71875 0l0 16.703125q0 1.96875 0.140625 3.875q0.140625 1.890625 0.53125 3.421875l-4.328125 0l-1.0 -3.265625l-0.140625 0q-0.921875 1.6875 -2.484375 2.796875q-1.546875 1.09375 -3.859375 1.09375q-1.484375 0 -2.640625 -0.40625q-1.140625 -0.40625 -1.96875 -1.40625q-0.8125 -1.015625 -1.25 -2.765625q-0.421875 -1.765625 -0.421875 -4.453125l0 -15.59375l5.703125 0zm16.3768 0l5.703125 0l0 24.0l-5.703125 0l0 -24.0zm-0.671875 -6.765627q0 -1.4375 0.90625 -2.375q0.921875 -0.9375 2.609375 -0.9375q1.671875 0 2.671875 0.921875q1.015625 0.90625 1.015625 2.390625q0 1.4843769 -1.015625 2.359377q-1.0 0.859375 -2.671875 0.859375q-1.6875 0 -2.609375 -0.890625q-0.90625 -0.890625 -0.90625 -2.328127zm37.046295 28.984377q-1.1875 1.0625 -3.265625 1.734375q-2.0625 0.671875 -4.3125 0.671875q-2.5 0 -4.296875 -0.859375q-1.796875 -0.875 -2.953125 -2.5q-1.15625 -1.640625 -1.703125 -3.96875q-0.546875 -2.328125 -0.546875 -5.296875q0 -6.484375 2.5625 -9.578125q2.578125 -3.09375 7.125 -3.09375q1.546875 0 2.984375 0.453125q1.4375 0.453125 2.5625 1.546875q1.125 1.078125 1.8125 2.875q0.703125 1.796875 0.703125 4.53125q0 1.0625 -0.125 2.265625q-0.109375 1.1875 -0.34375 2.578125l-11.671875 0q0.09375 2.984375 1.25 4.578125q1.15625 1.578125 3.703125 1.578125q1.53125 0 2.796875 -0.484375q1.28125 -0.484375 1.953125 -1.015625l1.765625 3.984375zm-7.484375 -18.0q-1.828125 0 -2.734375 1.46875q-0.90625 1.46875 -1.046875 4.109375l6.609375 0q0.15625 -2.734375 -0.5625 -4.15625q-0.71875 -1.421875 -2.265625 -1.421875zm19.872162 13.390625q0 -1.0 -0.65625 -1.6875q-0.640625 -0.703125 -1.65625 -1.296875q-1.0 -0.609375 -2.125 -1.234375q-1.125 -0.625 -2.140625 -1.53125q-1.0 -0.921875 -1.65625 -2.203125q-0.640625 -1.296875 -0.640625 -3.265625q0 -3.359375 1.8125 -5.1875q1.828125 -1.828125 5.390625 -1.828125q2.109375 0 3.96875 0.453125q1.875 0.453125 2.984375 1.125l-1.34375 4.421875q-0.90625 -0.390625 -2.203125 -0.75q-1.296875 -0.359375 -2.546875 -0.359375q-2.359375 0 -2.359375 1.96875q0 0.921875 0.640625 1.53125q0.65625 0.59375 1.65625 1.171875q1.015625 0.5625 2.140625 1.1875q1.140625 0.625 2.140625 1.5625q1.015625 0.9375 1.65625 2.28125q0.65625 1.34375 0.65625 3.3125q0 3.3125 -2.015625 5.328125q-2.015625 2.015625 -6.0 2.015625q-1.96875 0 -3.875 -0.484375q-1.890625 -0.484375 -3.046875 -1.25l1.59375 -4.609375q1.0 0.578125 2.3125 1.015625q1.328125 0.4375 2.765625 0.4375q1.109375 0 1.828125 -0.5q0.71875 -0.515625 0.71875 -1.625zm6.8625336 -17.609375l2.640625 0l0 -4.515625l5.71875 -1.7656269l0 6.281252l4.65625 0l0 5.09375l-4.65625 0l0 10.453125q0 2.0625 0.40625 2.9375q0.40625 0.859375 1.46875 0.859375q0.71875 0 1.28125 -0.140625q0.578125 -0.140625 1.25 -0.4375l0.734375 4.5625q-1.0625 0.53125 -2.453125 0.890625q-1.390625 0.359375 -2.9375 0.359375q-2.734375 0 -4.109375 -1.578125q-1.359375 -1.59375 -1.359375 -5.34375l0 -12.5625l-2.640625 0l0 -5.09375zm24.01117 0l2.578125 0l0 -1.34375q0 -4.562502 1.703125 -6.593752q1.71875 -2.046875 4.875 -2.046875q3.171875 0 5.28125 0.859375l-1.046875 4.859377q-0.875 -0.34375 -1.546875 -0.40625q-0.671875 -0.078125 -1.390625 -0.078125q-1.390625 0 -1.78125 1.078125q-0.375 1.078125 -0.375 3.671875l4.078125 0l0 5.09375l-4.078125 0l0 18.90625l-5.71875 0l0 -18.90625l-2.578125 0l0 -5.09375zm14.53479 1.4375q1.4375 -0.859375 3.59375 -1.390625q2.171875 -0.53125 4.90625 -0.53125q4.078125 0 5.6875 2.125q1.609375 2.109375 1.609375 5.984375q0 2.265625 -0.125 4.453125q-0.125 2.171875 -0.171875 4.265625q-0.046875 2.09375 0.078125 4.03125q0.125 1.9375 0.65625 3.671875l-4.65625 0l-0.921875 -2.921875l-0.1875 0q-0.765625 1.390625 -2.15625 2.3125q-1.390625 0.90625 -3.515625 0.90625q-2.828125 0 -4.46875 -1.890625q-1.625 -1.90625 -1.625 -5.078125q0 -4.3125 3.0625 -6.140625q3.078125 -1.828125 8.3125 -1.53125q0.25 -2.796875 -0.359375 -4.03125q-0.59375 -1.25 -2.5625 -1.25q-1.4375 0 -2.984375 0.34375q-1.53125 0.328125 -2.734375 0.953125l-1.4375 -4.28125zm6.859375 18.0q1.296875 0 2.109375 -0.640625q0.828125 -0.65625 1.203125 -1.421875l0 -3.984375q-1.09375 -0.140625 -2.109375 -0.046875q-1.0 0.09375 -1.78125 0.4375q-0.765625 0.328125 -1.21875 0.984375q-0.453125 0.640625 -0.453125 1.65625q0 1.484375 0.59375 2.25q0.609375 0.765625 1.65625 0.765625zm13.402161 -19.4375l5.703125 0l0 24.0l-5.703125 0l0 -24.0zm-0.671875 -6.765627q0 -1.4375 0.90625 -2.375q0.921875 -0.9375 2.609375 -0.9375q1.671875 0 2.671875 0.921875q1.015625 0.90625 1.015625 2.390625q0 1.4843769 -1.015625 2.359377q-1.0 0.859375 -2.671875 0.859375q-1.6875 0 -2.609375 -0.890625q-0.90625 -0.890625 -0.90625 -2.328127zm9.112518 6.765627l2.640625 0l0 -4.515625l5.71875 -1.7656269l0 6.281252l4.65625 0l0 5.09375l-4.65625 0l0 10.453125q0 2.0625 0.40625 2.9375q0.40625 0.859375 1.46875 0.859375q0.71875 0 1.28125 -0.140625q0.578125 -0.140625 1.25 -0.4375l0.734375 4.5625q-1.0625 0.53125 -2.453125 0.890625q-1.390625 0.359375 -2.9375 0.359375q-2.734375 0 -4.109375 -1.578125q-1.359375 -1.59375 -1.359375 -5.34375l0 -12.5625l-2.640625 0l0 -5.09375z" fill-rule="nonzero"></path><path fill="#000000" fill-opacity="0.0" d="m32.72441 122.89687l894.55115 0l0 346.74014l-894.55115 0z" fill-rule="nonzero"></path><path fill="#695d46" d="m51.41191 139.34312q-2.8125 0 -4.453125 1.875q-1.640625 1.875 -1.640625 5.15625q0 3.359375 1.578125 5.203125q1.578125 1.828125 4.5 1.828125q1.796875 0 4.09375 -0.65625l0 1.75q-1.78125 0.671875 -4.40625 0.671875q-3.78125 0 -5.84375 -2.296875q-2.046875 -2.296875 -2.046875 -6.53125q0 -2.640625 0.984375 -4.625q1.0 -2.0 2.859375 -3.078125q1.875 -1.078125 4.40625 -1.078125q2.6875 0 4.703125 0.984375l-0.84375 1.703125q-1.9375 -0.90625 -3.890625 -0.90625zm18.609375 9.15625q0 3.140625 -1.59375 4.90625q-1.578125 1.765625 -4.359375 1.765625q-1.734375 0 -3.078125 -0.8125q-1.328125 -0.8125 -2.0625 -2.3125q-0.71875 -1.515625 -0.71875 -3.546875q0 -3.140625 1.5625 -4.890625q1.578125 -1.75 4.375 -1.75q2.6875 0 4.28125 1.796875q1.59375 1.78125 1.59375 4.84375zm-9.796875 0q0 2.46875 0.984375 3.765625q0.984375 1.28125 2.90625 1.28125q1.90625 0 2.890625 -1.28125q1.0 -1.296875 1.0 -3.765625q0 -2.453125 -1.0 -3.71875q-0.984375 -1.265625 -2.921875 -1.265625q-1.90625 0 -2.890625 1.25q-0.96875 1.25 -0.96875 3.734375zm21.996094 6.4375l0 -8.3125q0 -1.5625 -0.71875 -2.328125q-0.71875 -0.78125 -2.234375 -0.78125q-2.015625 0 -2.953125 1.09375q-0.9375 1.078125 -0.9375 3.59375l0 6.734375l-1.953125 0l0 -12.84375l1.578125 0l0.328125 1.75l0.09375 0q0.59375 -0.9375 1.671875 -1.453125q1.078125 -0.53125 2.40625 -0.53125q2.3125 0 3.484375 1.125q1.171875 1.109375 1.171875 3.578125l0 8.375l-1.9375 0zm14.730469 0l0 -8.3125q0 -1.5625 -0.71875 -2.328125q-0.71875 -0.78125 -2.234375 -0.78125q-2.015625 0 -2.953125 1.09375q-0.9375 1.078125 -0.9375 3.59375l0 6.734375l-1.953125 0l0 -12.84375l1.578125 0l0.328125 1.75l0.09375 0q0.59375 -0.9375 1.671875 -1.453125q1.078125 -0.53125 2.40625 -0.53125q2.3125 0 3.484375 1.125q1.171875 1.109375 1.171875 3.578125l0 8.375l-1.9375 0zm11.355469 0.234375q-2.84375 0 -4.5 -1.734375q-1.640625 -1.734375 -1.640625 -4.8125q0 -3.109375 1.53125 -4.9375q1.53125 -1.828125 4.109375 -1.828125q2.421875 0 3.828125 1.59375q1.40625 1.578125 1.40625 4.1875l0 1.21875l-8.859375 0q0.0625 2.265625 1.140625 3.4375q1.09375 1.171875 3.0625 1.171875q2.078125 0 4.09375 -0.859375l0 1.734375q-1.03125 0.4375 -1.953125 0.625q-0.90625 0.203125 -2.21875 0.203125zm-0.515625 -11.6875q-1.546875 0 -2.46875 1.015625q-0.921875 1.0 -1.09375 2.78125l6.71875 0q0 -1.84375 -0.828125 -2.8125q-0.8125 -0.984375 -2.328125 -0.984375zm11.652344 4.875l-4.46875 -6.265625l2.21875 0l3.390625 4.921875l3.375 -4.921875l2.1875 0l-4.46875 6.265625l4.703125 6.578125l-2.203125 0l-3.59375 -5.203125l-3.640625 5.203125l-2.203125 0l4.703125 -6.578125zm11.433594 6.578125l-1.953125 0l0 -12.84375l1.953125 0l0 12.84375zm-2.109375 -16.328125q0 -0.671875 0.328125 -0.96875q0.328125 -0.3125 0.8125 -0.3125q0.46875 0 0.8125 0.3125q0.34375 0.3125 0.34375 0.96875q0 0.65625 -0.34375 0.984375q-0.34375 0.3125 -0.8125 0.3125q-0.484375 0 -0.8125 -0.3125q-0.328125 -0.328125 -0.328125 -0.984375zm17.320312 9.890625q0 3.140625 -1.59375 4.90625q-1.578125 1.765625 -4.359375 1.765625q-1.734375 0 -3.078125 -0.8125q-1.328125 -0.8125 -2.0625 -2.3125q-0.71875 -1.515625 -0.71875 -3.546875q0 -3.140625 1.5625 -4.890625q1.578125 -1.75 4.375 -1.75q2.6875 0 4.28125 1.796875q1.59375 1.78125 1.59375 4.84375zm-9.796875 0q0 2.46875 0.984375 3.765625q0.984375 1.28125 2.90625 1.28125q1.90625 0 2.890625 -1.28125q1.0 -1.296875 1.0 -3.765625q0 -2.453125 -1.0 -3.71875q-0.984375 -1.265625 -2.921875 -1.265625q-1.90625 0 -2.890625 1.25q-0.96875 1.25 -0.96875 3.734375zm21.996094 6.4375l0 -8.3125q0 -1.5625 -0.71875 -2.328125q-0.71875 -0.78125 -2.234375 -0.78125q-2.015625 0 -2.953125 1.09375q-0.9375 1.078125 -0.9375 3.59375l0 6.734375l-1.953125 0l0 -12.84375l1.578125 0l0.328125 1.75l0.09375 0q0.59375 -0.9375 1.671875 -1.453125q1.078125 -0.53125 2.40625 -0.53125q2.3125 0 3.484375 1.125q1.171875 1.109375 1.171875 3.578125l0 8.375l-1.9375 0z" fill-rule="nonzero"></path><path fill="#695d46" d="m51.41191 193.34312q-2.8125 0 -4.453125 1.875q-1.640625 1.875 -1.640625 5.15625q0 3.359375 1.578125 5.203125q1.578125 1.828125 4.5 1.828125q1.796875 0 4.09375 -0.65625l0 1.75q-1.78125 0.671875 -4.40625 0.671875q-3.78125 0 -5.84375 -2.296875q-2.046875 -2.296875 -2.046875 -6.53125q0 -2.640625 0.984375 -4.625q1.0 -2.0 2.859375 -3.078125q1.875 -1.078125 4.40625 -1.078125q2.6875 0 4.703125 0.984375l-0.84375 1.703125q-1.9375 -0.90625 -3.890625 -0.90625zm13.375 2.515625q0.859375 0 1.53125 0.140625l-0.265625 1.796875q-0.796875 -0.171875 -1.40625 -0.171875q-1.5625 0 -2.671875 1.265625q-1.09375 1.265625 -1.09375 3.15625l0 6.890625l-1.953125 0l0 -12.84375l1.609375 0l0.21875 2.375l0.09375 0q0.71875 -1.25 1.71875 -1.921875q1.015625 -0.6875 2.21875 -0.6875zm9.359375 13.3125q-2.84375 0 -4.5 -1.734375q-1.640625 -1.734375 -1.640625 -4.8125q0 -3.109375 1.53125 -4.9375q1.53125 -1.828125 4.109375 -1.828125q2.421875 0 3.828125 1.59375q1.40625 1.578125 1.40625 4.1875l0 1.21875l-8.859375 0q0.0625 2.265625 1.140625 3.4375q1.09375 1.171875 3.0625 1.171875q2.078125 0 4.09375 -0.859375l0 1.734375q-1.03125 0.4375 -1.953125 0.625q-0.90625 0.203125 -2.21875 0.203125zm-0.515625 -11.6875q-1.546875 0 -2.46875 1.015625q-0.921875 1.0 -1.09375 2.78125l6.71875 0q0 -1.84375 -0.828125 -2.8125q-0.8125 -0.984375 -2.328125 -0.984375zm-1.359375 -3.390625q0.5625 -0.71875 1.203125 -1.75q0.65625 -1.03125 1.03125 -1.796875l2.375 0l0 0.25q-0.515625 0.765625 -1.546875 1.875q-1.015625 1.109375 -1.765625 1.71875l-1.296875 0l0 -0.296875zm17.824219 14.84375l-0.390625 -1.828125l-0.09375 0q-0.96875 1.203125 -1.921875 1.640625q-0.953125 0.421875 -2.375 0.421875q-1.921875 0 -3.0 -0.984375q-1.078125 -0.984375 -1.078125 -2.796875q0 -3.890625 6.21875 -4.078125l2.171875 -0.078125l0 -0.796875q0 -1.515625 -0.65625 -2.234375q-0.640625 -0.71875 -2.0625 -0.71875q-1.609375 0 -3.640625 0.984375l-0.59375 -1.484375q0.953125 -0.515625 2.078125 -0.8125q1.125 -0.296875 2.265625 -0.296875q2.296875 0 3.40625 1.03125q1.109375 1.015625 1.109375 3.265625l0 8.765625l-1.4375 0zm-4.40625 -1.375q1.828125 0 2.859375 -0.984375q1.03125 -1.0 1.03125 -2.796875l0 -1.15625l-1.9375 0.078125q-2.328125 0.078125 -3.359375 0.71875q-1.015625 0.640625 -1.015625 1.984375q0 1.0625 0.640625 1.609375q0.640625 0.546875 1.78125 0.546875zm14.003906 0q0.515625 0 0.984375 -0.078125q0.484375 -0.078125 0.765625 -0.15625l0 1.484375q-0.3125 0.15625 -0.9375 0.25q-0.609375 0.109375 -1.09375 0.109375q-3.734375 0 -3.734375 -3.921875l0 -7.640625l-1.84375 0l0 -0.9375l1.84375 -0.8125l0.828125 -2.75l1.125 0l0 2.984375l3.71875 0l0 1.515625l-3.71875 0l0 7.546875q0 1.171875 0.546875 1.796875q0.546875 0.609375 1.515625 0.609375zm6.2695312 1.375l-1.953125 0l0 -12.84375l1.953125 0l0 12.84375zm-2.109375 -16.328125q0 -0.671875 0.328125 -0.96875q0.328125 -0.3125 0.8125 -0.3125q0.46875 0 0.8125 0.3125q0.34375 0.3125 0.34375 0.96875q0 0.65625 -0.34375 0.984375q-0.34375 0.3125 -0.8125 0.3125q-0.484375 0 -0.8125 -0.3125q-0.328125 -0.328125 -0.328125 -0.984375zm17.320312 9.890625q0 3.140625 -1.59375 4.90625q-1.578125 1.765625 -4.359375 1.765625q-1.734375 0 -3.078125 -0.8125q-1.328125 -0.8125 -2.0625 -2.3125q-0.71875 -1.515625 -0.71875 -3.546875q0 -3.140625 1.5625 -4.890625q1.578125 -1.75 4.375 -1.75q2.6875 0 4.28125 1.796875q1.59375 1.78125 1.59375 4.84375zm-9.796875 0q0 2.46875 0.984375 3.765625q0.984375 1.28125 2.90625 1.28125q1.90625 0 2.890625 -1.28125q1.0 -1.296875 1.0 -3.765625q0 -2.453125 -1.0 -3.71875q-0.984375 -1.265625 -2.921875 -1.265625q-1.90625 0 -2.890625 1.25q-0.96875 1.25 -0.96875 3.734375zm21.996094 6.4375l0 -8.3125q0 -1.5625 -0.71875 -2.328125q-0.71875 -0.78125 -2.234375 -0.78125q-2.015625 0 -2.953125 1.09375q-0.9375 1.078125 -0.9375 3.59375l0 6.734375l-1.953125 0l0 -12.84375l1.578125 0l0.328125 1.75l0.09375 0q0.59375 -0.9375 1.671875 -1.453125q1.078125 -0.53125 2.40625 -0.53125q2.3125 0 3.484375 1.125q1.171875 1.109375 1.171875 3.578125l0 8.375l-1.9375 0zm20.917969 -1.71875l-0.109375 0q-1.34375 1.953125 -4.03125 1.953125q-2.515625 0 -3.921875 -1.71875q-1.40625 -1.734375 -1.40625 -4.90625q0 -3.171875 1.40625 -4.921875q1.40625 -1.765625 3.921875 -1.765625q2.609375 0 4.0 1.890625l0.15625 0l-0.078125 -0.921875l-0.046875 -0.90625l0 -5.21875l1.9375 0l0 18.234375l-1.578125 0l-0.25 -1.71875zm-3.890625 0.328125q1.984375 0 2.875 -1.078125q0.90625 -1.09375 0.90625 -3.515625l0 -0.40625q0 -2.734375 -0.90625 -3.890625q-0.90625 -1.171875 -2.90625 -1.171875q-1.703125 0 -2.625 1.328125q-0.90625 1.328125 -0.90625 3.765625q0 2.453125 0.90625 3.71875q0.90625 1.25 2.65625 1.25zm15.269531 1.625q-2.84375 0 -4.5 -1.734375q-1.640625 -1.734375 -1.640625 -4.8125q0 -3.109375 1.53125 -4.9375q1.53125 -1.828125 4.109375 -1.828125q2.421875 0 3.828125 1.59375q1.40625 1.578125 1.40625 4.1875l0 1.21875l-8.859375 0q0.0625 2.265625 1.140625 3.4375q1.09375 1.171875 3.0625 1.171875q2.078125 0 4.09375 -0.859375l0 1.734375q-1.03125 0.4375 -1.953125 0.625q-0.90625 0.203125 -2.21875 0.203125zm-0.515625 -11.6875q-1.546875 0 -2.46875 1.015625q-0.921875 1.0 -1.09375 2.78125l6.71875 0q0 -1.84375 -0.828125 -2.8125q-0.8125 -0.984375 -2.328125 -0.984375zm16.746094 11.453125l-1.953125 0l0 -18.234375l1.953125 0l0 18.234375zm5.6796875 -17.140625l0.171875 0.265625q-0.296875 1.171875 -0.875 2.734375q-0.578125 1.546875 -1.203125 2.875l-1.421875 0q0.8125 -3.34375 1.1875 -5.875l2.140625 0zm7.9375 17.375q-2.84375 0 -4.5 -1.734375q-1.640625 -1.734375 -1.640625 -4.8125q0 -3.109375 1.53125 -4.9375q1.53125 -1.828125 4.109375 -1.828125q2.421875 0 3.828125 1.59375q1.40625 1.578125 1.40625 4.1875l0 1.21875l-8.859375 0q0.0625 2.265625 1.140625 3.4375q1.09375 1.171875 3.0625 1.171875q2.078125 0 4.09375 -0.859375l0 1.734375q-1.03125 0.4375 -1.953125 0.625q-0.90625 0.203125 -2.21875 0.203125zm-0.515625 -11.6875q-1.546875 0 -2.46875 1.015625q-0.921875 1.0 -1.09375 2.78125l6.71875 0q0 -1.84375 -0.828125 -2.8125q-0.8125 -0.984375 -2.328125 -0.984375zm16.839844 7.953125q0 1.78125 -1.34375 2.765625q-1.328125 0.96875 -3.734375 0.96875q-2.5625 0 -3.984375 -0.8125l0 -1.796875q0.921875 0.46875 1.984375 0.734375q1.0625 0.265625 2.046875 0.265625q1.515625 0 2.328125 -0.484375q0.828125 -0.484375 0.828125 -1.484375q0 -0.75 -0.65625 -1.28125q-0.640625 -0.53125 -2.53125 -1.265625q-1.78125 -0.65625 -2.546875 -1.15625q-0.75 -0.5 -1.125 -1.125q-0.359375 -0.640625 -0.359375 -1.515625q0 -1.578125 1.265625 -2.484375q1.28125 -0.90625 3.515625 -0.90625q2.0625 0 4.046875 0.84375l-0.6875 1.578125q-1.9375 -0.796875 -3.5 -0.796875q-1.390625 0 -2.09375 0.4375q-0.703125 0.4375 -0.703125 1.1875q0 0.515625 0.265625 0.890625q0.265625 0.359375 0.84375 0.6875q0.59375 0.328125 2.25 0.953125q2.296875 0.828125 3.09375 1.671875q0.796875 0.84375 0.796875 2.125zm9.152344 3.734375q-1.265625 0 -2.296875 -0.453125q-1.03125 -0.46875 -1.734375 -1.4375l-0.140625 0q0.140625 1.125 0.140625 2.140625l0 5.28125l-1.953125 0l0 -18.609375l1.578125 0l0.28125 1.75l0.09375 0q0.75 -1.046875 1.734375 -1.515625q1.0 -0.46875 2.296875 -0.46875q2.546875 0 3.9375 1.75q1.390625 1.734375 1.390625 4.890625q0 3.171875 -1.421875 4.921875q-1.40625 1.75 -3.90625 1.75zm-0.28125 -11.65625q-1.96875 0 -2.859375 1.09375q-0.875 1.078125 -0.890625 3.453125l0 0.4375q0 2.703125 0.890625 3.875q0.90625 1.171875 2.90625 1.171875q1.65625 0 2.59375 -1.34375q0.953125 -1.359375 0.953125 -3.71875q0 -2.40625 -0.953125 -3.6875q-0.9375 -1.28125 -2.640625 -1.28125zm16.910156 11.421875l-0.390625 -1.828125l-0.09375 0q-0.96875 1.203125 -1.921875 1.640625q-0.953125 0.421875 -2.375 0.421875q-1.921875 0 -3.0 -0.984375q-1.078125 -0.984375 -1.078125 -2.796875q0 -3.890625 6.21875 -4.078125l2.171875 -0.078125l0 -0.796875q0 -1.515625 -0.65625 -2.234375q-0.640625 -0.71875 -2.0625 -0.71875q-1.609375 0 -3.640625 0.984375l-0.59375 -1.484375q0.953125 -0.515625 2.078125 -0.8125q1.125 -0.296875 2.265625 -0.296875q2.296875 0 3.40625 1.03125q1.109375 1.015625 1.109375 3.265625l0 8.765625l-1.4375 0zm-4.40625 -1.375q1.828125 0 2.859375 -0.984375q1.03125 -1.0 1.03125 -2.796875l0 -1.15625l-1.9375 0.078125q-2.328125 0.078125 -3.359375 0.71875q-1.015625 0.640625 -1.015625 1.984375q0 1.0625 0.640625 1.609375q0.640625 0.546875 1.78125 0.546875zm14.988281 1.609375q-2.796875 0 -4.328125 -1.71875q-1.53125 -1.71875 -1.53125 -4.859375q0 -3.21875 1.546875 -4.96875q1.5625 -1.765625 4.4375 -1.765625q0.921875 0 1.84375 0.203125q0.9375 0.1875 1.453125 0.46875l-0.59375 1.640625q-0.640625 -0.25 -1.40625 -0.421875q-0.765625 -0.171875 -1.34375 -0.171875q-3.921875 0 -3.921875 5.0q0 2.359375 0.953125 3.625q0.96875 1.265625 2.84375 1.265625q1.59375 0 3.28125 -0.6875l0 1.71875q-1.28125 0.671875 -3.234375 0.671875zm11.707016 0q-2.84375 0 -4.4999847 -1.734375q-1.640625 -1.734375 -1.640625 -4.8125q0 -3.109375 1.53125 -4.9375q1.5312347 -1.828125 4.1093597 -1.828125q2.421875 0 3.828125 1.59375q1.40625 1.578125 1.40625 4.1875l0 1.21875l-8.85936 0q0.0625 2.265625 1.1406097 3.4375q1.09375 1.171875 3.0625 1.171875q2.078125 0 4.09375 -0.859375l0 1.734375q-1.03125 0.4375 -1.953125 0.625q-0.90625 0.203125 -2.21875 0.203125zm-0.515625 -11.6875q-1.546875 0 -2.46875 1.015625q-0.921875 1.0 -1.0937347 2.78125l6.7187347 0q0 -1.84375 -0.828125 -2.8125q-0.8125 -0.984375 -2.328125 -0.984375zm17.496094 0.1875l-0.1875 -0.25q0.65625 -2.53125 2.09375 -5.625l1.4375 0q-0.34375 1.359375 -0.703125 3.046875q-0.34375 1.6875 -0.484375 2.828125l-2.15625 0zm-4.328125 0l-0.140625 -0.25q0.25 -1.0625 0.828125 -2.625q0.578125 -1.578125 1.234375 -3.0l1.4375 0q-0.765625 2.984375 -1.203125 5.875l-2.15625 0zm19.871094 11.265625l-9.546875 0l0 -17.140625l9.546875 0l0 1.78125l-7.5625 0l0 5.515625l7.109375 0l0 1.75l-7.109375 0l0 6.3125l7.5625 0l0 1.78125zm6.3164062 0l-4.875 -12.84375l2.09375 0l2.765625 7.609375q0.9375 2.671875 1.09375 3.46875l0.09375 0q0.125 -0.609375 0.8125 -2.5625q0.6875 -1.953125 3.078125 -8.515625l2.09375 0l-4.875 12.84375l-2.28125 0zm14.6328125 0.234375q-2.84375 0 -4.5 -1.734375q-1.640625 -1.734375 -1.640625 -4.8125q0 -3.109375 1.53125 -4.9375q1.53125 -1.828125 4.109375 -1.828125q2.421875 0 3.828125 1.59375q1.40625 1.578125 1.40625 4.1875l0 1.21875l-8.859375 0q0.0625 2.265625 1.140625 3.4375q1.09375 1.171875 3.0625 1.171875q2.078125 0 4.09375 -0.859375l0 1.734375q-1.03125 0.4375 -1.953125 0.625q-0.90625 0.203125 -2.21875 0.203125zm-0.515625 -11.6875q-1.546875 0 -2.46875 1.015625q-0.921875 1.0 -1.09375 2.78125l6.71875 0q0 -1.84375 -0.828125 -2.8125q-0.8125 -0.984375 -2.328125 -0.984375zm17.355469 11.453125l0 -8.3125q0 -1.5625 -0.71875 -2.328125q-0.71875 -0.78125 -2.234375 -0.78125q-2.015625 0 -2.953125 1.09375q-0.9375 1.078125 -0.9375 3.59375l0 6.734375l-1.953125 0l0 -12.84375l1.578125 0l0.328125 1.75l0.09375 0q0.59375 -0.9375 1.671875 -1.453125q1.078125 -0.53125 2.40625 -0.53125q2.3125 0 3.484375 1.125q1.171875 1.109375 1.171875 3.578125l0 8.375l-1.9375 0zm10.089844 -1.375q0.515625 0 0.984375 -0.078125q0.484375 -0.078125 0.765625 -0.15625l0 1.484375q-0.3125 0.15625 -0.9375 0.25q-0.609375 0.109375 -1.09375 0.109375q-3.734375 0 -3.734375 -3.921875l0 -7.640625l-1.84375 0l0 -0.9375l1.84375 -0.8125l0.828125 -2.75l1.125 0l0 2.984375l3.71875 0l0 1.515625l-3.71875 0l0 7.546875q0 1.171875 0.546875 1.796875q0.546875 0.609375 1.515625 0.609375zm18.175781 -14.21875q-2.8125 0 -4.453125 1.875q-1.640625 1.875 -1.640625 5.15625q0 3.359375 1.578125 5.203125q1.578125 1.828125 4.5 1.828125q1.796875 0 4.09375 -0.65625l0 1.75q-1.78125 0.671875 -4.40625 0.671875q-3.78125 0 -5.84375 -2.296875q-2.046875 -2.296875 -2.046875 -6.53125q0 -2.640625 0.984375 -4.625q1.0 -2.0 2.859375 -3.078125q1.875 -1.078125 4.40625 -1.078125q2.6875 0 4.703125 0.984375l-0.84375 1.703125q-1.9375 -0.90625 -3.890625 -0.90625zm9.796875 8.46875l0 7.125l-1.984375 0l0 -17.140625l4.703125 0q3.140625 0 4.640625 1.21875q1.515625 1.203125 1.515625 3.625q0 3.40625 -3.4375 4.59375l4.640625 7.703125l-2.34375 0l-4.15625 -7.125l-3.578125 0zm0 -1.71875l2.734375 0q2.109375 0 3.09375 -0.828125q0.984375 -0.84375 0.984375 -2.515625q0 -1.703125 -1.0 -2.453125q-1.0 -0.75 -3.21875 -0.75l-2.59375 0l0 6.546875zm20.429688 8.84375l-5.8125 -15.1875l-0.09375 0q0.171875 1.796875 0.171875 4.28125l0 10.90625l-1.84375 0l0 -17.140625l3.0 0l5.421875 14.140625l0.09375 0l5.46875 -14.140625l2.984375 0l0 17.140625l-2.0 0l0 -11.046875q0 -1.890625 0.171875 -4.125l-0.09375 0l-5.859375 15.171875l-1.609375 0zm15.355469 -17.140625l0.171875 0.265625q-0.296875 1.171875 -0.875 2.734375q-0.578125 1.546875 -1.203125 2.875l-1.421875 0q0.8125 -3.34375 1.1875 -5.875l2.140625 0zm4.328125 0l0.15625 0.265625q-0.28125 1.0625 -0.84375 2.625q-0.5625 1.5625 -1.21875 2.984375l-1.46875 0q0.3125 -1.171875 0.6875 -2.96875q0.390625 -1.8125 0.546875 -2.90625l2.140625 0zm17.496094 15.421875l-0.109375 0q-1.34375 1.953125 -4.03125 1.953125q-2.515625 0 -3.921875 -1.71875q-1.40625 -1.734375 -1.40625 -4.90625q0 -3.171875 1.40625 -4.921875q1.40625 -1.765625 3.921875 -1.765625q2.609375 0 4.0 1.890625l0.15625 0l-0.078125 -0.921875l-0.046875 -0.90625l0 -5.21875l1.9375 0l0 18.234375l-1.578125 0l-0.25 -1.71875zm-3.890625 0.328125q1.984375 0 2.875 -1.078125q0.90625 -1.09375 0.90625 -3.515625l0 -0.40625q0 -2.734375 -0.90625 -3.890625q-0.90625 -1.171875 -2.90625 -1.171875q-1.703125 0 -2.625 1.328125q-0.90625 1.328125 -0.90625 3.765625q0 2.453125 0.90625 3.71875q0.90625 1.25 2.65625 1.25zm17.753906 1.390625l-0.390625 -1.828125l-0.09375 0q-0.96875 1.203125 -1.921875 1.640625q-0.953125 0.421875 -2.375 0.421875q-1.921875 0 -3.0 -0.984375q-1.078125 -0.984375 -1.078125 -2.796875q0 -3.890625 6.21875 -4.078125l2.171875 -0.078125l0 -0.796875q0 -1.515625 -0.65625 -2.234375q-0.640625 -0.71875 -2.0625 -0.71875q-1.609375 0 -3.640625 0.984375l-0.59375 -1.484375q0.953125 -0.515625 2.078125 -0.8125q1.125 -0.296875 2.265625 -0.296875q2.296875 0 3.40625 1.03125q1.109375 1.015625 1.109375 3.265625l0 8.765625l-1.4375 0zm-4.40625 -1.375q1.828125 0 2.859375 -0.984375q1.03125 -1.0 1.03125 -2.796875l0 -1.15625l-1.9375 0.078125q-2.328125 0.078125 -3.359375 0.71875q-1.015625 0.640625 -1.015625 1.984375q0 1.0625 0.640625 1.609375q0.640625 0.546875 1.78125 0.546875zm18.644531 1.375l0 -8.3125q0 -1.5625 -0.71875 -2.328125q-0.71875 -0.78125 -2.234375 -0.78125q-2.015625 0 -2.953125 1.09375q-0.9375 1.078125 -0.9375 3.59375l0 6.734375l-1.953125 0l0 -12.84375l1.578125 0l0.328125 1.75l0.09375 0q0.59375 -0.9375 1.671875 -1.453125q1.078125 -0.53125 2.40625 -0.53125q2.3125 0 3.484375 1.125q1.171875 1.109375 1.171875 3.578125l0 8.375l-1.9375 0zm14.214844 -3.5q0 1.78125 -1.34375 2.765625q-1.328125 0.96875 -3.734375 0.96875q-2.5625 0 -3.984375 -0.8125l0 -1.796875q0.921875 0.46875 1.984375 0.734375q1.0625 0.265625 2.046875 0.265625q1.515625 0 2.328125 -0.484375q0.828125 -0.484375 0.828125 -1.484375q0 -0.75 -0.65625 -1.28125q-0.640625 -0.53125 -2.53125 -1.265625q-1.78125 -0.65625 -2.546875 -1.15625q-0.75 -0.5 -1.125 -1.125q-0.359375 -0.640625 -0.359375 -1.515625q0 -1.578125 1.265625 -2.484375q1.28125 -0.90625 3.515625 -0.90625q2.0625 0 4.046875 0.84375l-0.6875 1.578125q-1.9375 -0.796875 -3.5 -0.796875q-1.390625 0 -2.09375 0.4375q-0.703125 0.4375 -0.703125 1.1875q0 0.515625 0.265625 0.890625q0.265625 0.359375 0.84375 0.6875q0.59375 0.328125 2.25 0.953125q2.296875 0.828125 3.09375 1.671875q0.796875 0.84375 0.796875 2.125zm24.574219 -5.09375q0 4.109375 -2.09375 6.46875q-2.078125 2.359375 -5.78125 2.359375q-3.78125 0 -5.84375 -2.3125q-2.046875 -2.3125 -2.046875 -6.53125q0 -4.1875 2.0625 -6.484375q2.0625 -2.3125 5.859375 -2.3125q3.6875 0 5.765625 2.34375q2.078125 2.34375 2.078125 6.46875zm-13.65625 0q0 3.484375 1.484375 5.28125q1.484375 1.796875 4.296875 1.796875q2.859375 0 4.3125 -1.78125q1.453125 -1.796875 1.453125 -5.296875q0 -3.453125 -1.453125 -5.234375q-1.453125 -1.796875 -4.28125 -1.796875q-2.84375 0 -4.328125 1.796875q-1.484375 1.796875 -1.484375 5.234375zm23.035156 -4.484375q0.859375 0 1.53125 0.140625l-0.265625 1.796875q-0.796875 -0.171875 -1.40625 -0.171875q-1.5625 0 -2.671875 1.265625q-1.09375 1.265625 -1.09375 3.15625l0 6.890625l-1.953125 0l0 -12.84375l1.609375 0l0.21875 2.375l0.09375 0q0.71875 -1.25 1.71875 -1.921875q1.015625 -0.6875 2.21875 -0.6875zm5.890625 13.078125l-1.953125 0l0 -12.84375l1.953125 0l0 12.84375zm-2.109375 -16.328125q0 -0.671875 0.328125 -0.96875q0.328125 -0.3125 0.8125 -0.3125q0.46875 0 0.8125 0.3125q0.34375 0.3125 0.34375 0.96875q0 0.65625 -0.34375 0.984375q-0.34375 0.3125 -0.8125 0.3125q-0.484375 0 -0.8125 -0.3125q-0.328125 -0.328125 -0.328125 -0.984375zm16.742218 3.484375l0 1.234375l-2.375 0.28125q0.328125 0.40625 0.578125 1.078125q0.265625 0.65625 0.265625 1.484375q0 1.890625 -1.296875 3.015625q-1.28125 1.125 -3.53125 1.125q-0.578125 0 -1.078125 -0.09375q-1.25 0.65625 -1.25 1.640625q0 0.53125 0.4375 0.78125q0.4375 0.25 1.484375 0.25l2.28125 0q2.078125 0 3.1875 0.890625q1.125 0.875 1.125 2.546875q0 2.140625 -1.71875 3.25q-1.703125 1.125 -4.984375 1.125q-2.515625 0 -3.8906555 -0.9375q-1.359375 -0.9375 -1.359375 -2.640625q0 -1.171875 0.75 -2.03125q0.7500305 -0.859375 2.1094055 -1.171875q-0.484375 -0.21875 -0.828125 -0.6875q-0.328125 -0.46875 -0.328125 -1.09375q0 -0.703125 0.375 -1.21875q0.375 -0.53125 1.1875 -1.03125q-1.0 -0.40625 -1.625 -1.390625q-0.6250305 -0.984375 -0.6250305 -2.25q0 -2.109375 1.2656555 -3.25q1.265625 -1.140625 3.578125 -1.140625q1.015625 0 1.828125 0.234375l4.4375 0zm-10.25 15.0q0 1.046875 0.875 1.578125q0.890625 0.546875 2.53125 0.546875q2.453125 0 3.625 -0.734375q1.171875 -0.734375 1.171875 -1.984375q0 -1.046875 -0.640625 -1.453125q-0.640625 -0.40625 -2.421875 -0.40625l-2.328125 0q-1.328125 0 -2.078125 0.625q-0.734375 0.640625 -0.734375 1.828125zm1.0625 -10.890625q0 1.34375 0.75 2.046875q0.765625 0.6875 2.125 0.6875q2.859375 0 2.859375 -2.765625q0 -2.890625 -2.890625 -2.890625q-1.375 0 -2.109375 0.734375q-0.734375 0.734375 -0.734375 2.1875zm19.726562 8.734375l-0.390625 -1.828125l-0.09375 0q-0.96875 1.203125 -1.921875 1.640625q-0.953125 0.421875 -2.375 0.421875q-1.921875 0 -3.0 -0.984375q-1.078125 -0.984375 -1.078125 -2.796875q0 -3.890625 6.21875 -4.078125l2.171875 -0.078125l0 -0.796875q0 -1.515625 -0.65625 -2.234375q-0.640625 -0.71875 -2.0625 -0.71875q-1.609375 0 -3.640625 0.984375l-0.59375 -1.484375q0.953125 -0.515625 2.078125 -0.8125q1.125 -0.296875 2.265625 -0.296875q2.296875 0 3.40625 1.03125q1.109375 1.015625 1.109375 3.265625l0 8.765625l-1.4375 0zm-4.40625 -1.375q1.828125 0 2.859375 -0.984375q1.03125 -1.0 1.03125 -2.796875l0 -1.15625l-1.9375 0.078125q-2.328125 0.078125 -3.359375 0.71875q-1.015625 0.640625 -1.015625 1.984375q0 1.0625 0.640625 1.609375q0.640625 0.546875 1.78125 0.546875zm26.222656 1.375l0 -8.359375q0 -1.53125 -0.65625 -2.296875q-0.65625 -0.765625 -2.046875 -0.765625q-1.8125 0 -2.6875 1.046875q-0.859375 1.03125 -0.859375 3.203125l0 7.171875l-1.9375 0l0 -8.359375q0 -1.53125 -0.65625 -2.296875q-0.65625 -0.765625 -2.0625 -0.765625q-1.828125 0 -2.671875 1.09375q-0.84375 1.09375 -0.84375 3.59375l0 6.734375l-1.953125 0l0 -12.84375l1.578125 0l0.328125 1.75l0.09375 0q0.546875 -0.9375 1.546875 -1.453125q1.0 -0.53125 2.25 -0.53125q3.0 0 3.9375 2.171875l0.09375 0q0.5625 -1.0 1.65625 -1.578125q1.09375 -0.59375 2.484375 -0.59375q2.1875 0 3.265625 1.125q1.078125 1.109375 1.078125 3.578125l0 8.375l-1.9375 0zm7.9023438 0l-1.953125 0l0 -12.84375l1.953125 0l0 12.84375zm-2.109375 -16.328125q0 -0.671875 0.328125 -0.96875q0.328125 -0.3125 0.8125 -0.3125q0.46875 0 0.8125 0.3125q0.34375 0.3125 0.34375 0.96875q0 0.65625 -0.34375 0.984375q-0.34375 0.3125 -0.8125 0.3125q-0.484375 0 -0.8125 -0.3125q-0.328125 -0.328125 -0.328125 -0.984375z" fill-rule="nonzero"></path><path fill="#695d46" d="m51.41191 247.34312q-2.8125 0 -4.453125 1.875q-1.640625 1.875 -1.640625 5.15625q0 3.3593597 1.578125 5.2031097q1.578125 1.828125 4.5 1.828125q1.796875 0 4.09375 -0.65625l0 1.75q-1.78125 0.671875 -4.40625 0.671875q-3.78125 0 -5.84375 -2.296875q-2.046875 -2.296875 -2.046875 -6.5312347q0 -2.640625 0.984375 -4.625q1.0 -2.0 2.859375 -3.078125q1.875 -1.078125 4.40625 -1.078125q2.6875 0 4.703125 0.984375l-0.84375 1.703125q-1.9375 -0.90625 -3.890625 -0.90625zm18.609375 9.156235q0 3.140625 -1.59375 4.90625q-1.578125 1.765625 -4.359375 1.765625q-1.734375 0 -3.078125 -0.8125q-1.328125 -0.8125 -2.0625 -2.3125q-0.71875 -1.515625 -0.71875 -3.546875q0 -3.1406097 1.5625 -4.8906097q1.578125 -1.75 4.375 -1.75q2.6875 0 4.28125 1.796875q1.59375 1.78125 1.59375 4.8437347zm-9.796875 0q0 2.46875 0.984375 3.765625q0.984375 1.28125 2.90625 1.28125q1.90625 0 2.890625 -1.28125q1.0 -1.296875 1.0 -3.765625q0 -2.4531097 -1.0 -3.7187347q-0.984375 -1.265625 -2.921875 -1.265625q-1.90625 0 -2.890625 1.25q-0.96875 1.25 -0.96875 3.7343597zm21.996094 6.4375l0 -8.312485q0 -1.5625 -0.71875 -2.328125q-0.71875 -0.78125 -2.234375 -0.78125q-2.015625 0 -2.953125 1.09375q-0.9375 1.078125 -0.9375 3.5937347l0 6.734375l-1.953125 0l0 -12.843735l1.578125 0l0.328125 1.75l0.09375 0q0.59375 -0.9375 1.671875 -1.453125q1.078125 -0.53125 2.40625 -0.53125q2.3125 0 3.484375 1.125q1.171875 1.109375 1.171875 3.578125l0 8.374985l-1.9375 0zm11.730469 -11.32811l-3.28125 0l0 11.32811l-1.9375 0l0 -11.32811l-2.296875 0l0 -0.890625l2.296875 -0.703125l0 -0.703125q0 -4.734375 4.140625 -4.734375q1.015625 0 2.390625 0.40625l-0.515625 1.5625q-1.125 -0.375 -1.921875 -0.375q-1.09375 0 -1.625 0.734375q-0.53125 0.734375 -0.53125 2.359375l0 0.828125l3.28125 0l0 1.515625zm4.2890625 11.32811l-1.953125 0l0 -12.843735l1.953125 0l0 12.843735zm-2.109375 -16.32811q0 -0.671875 0.328125 -0.96875q0.328125 -0.3125 0.8125 -0.3125q0.46875 0 0.8125 0.3125q0.34375 0.3125 0.34375 0.96875q0 0.65625 -0.34375 0.984375q-0.34375 0.3125 -0.8125 0.3125q-0.484375 0 -0.8125 -0.3125q-0.328125 -0.328125 -0.328125 -0.984375zm16.742188 3.484375l0 1.234375l-2.375 0.28125q0.328125 0.40625 0.578125 1.078125q0.265625 0.65625 0.265625 1.484375q0 1.8906097 -1.296875 3.0156097q-1.28125 1.125 -3.53125 1.125q-0.578125 0 -1.078125 -0.09375q-1.25 0.65625 -1.25 1.640625q0 0.53125 0.4375 0.78125q0.4375 0.25 1.484375 0.25l2.28125 0q2.078125 0 3.1875 0.890625q1.125 0.875 1.125 2.546875q0 2.140625 -1.71875 3.25q-1.703125 1.125 -4.984375 1.125q-2.515625 0 -3.890625 -0.9375q-1.359375 -0.9375 -1.359375 -2.640625q0 -1.171875 0.75 -2.03125q0.75 -0.859375 2.109375 -1.171875q-0.484375 -0.21875 -0.828125 -0.6875q-0.328125 -0.46875 -0.328125 -1.09375q0 -0.703125 0.375 -1.21875q0.375 -0.53125 1.1875 -1.03125q-1.0 -0.40625 -1.625 -1.390625q-0.625 -0.98435974 -0.625 -2.2499847q0 -2.109375 1.265625 -3.25q1.265625 -1.140625 3.578125 -1.140625q1.015625 0 1.828125 0.234375l4.4375 0zm-10.25 14.999985q0 1.046875 0.875 1.578125q0.890625 0.546875 2.53125 0.546875q2.453125 0 3.625 -0.734375q1.171875 -0.734375 1.171875 -1.984375q0 -1.046875 -0.640625 -1.453125q-0.640625 -0.40625 -2.421875 -0.40625l-2.328125 0q-1.328125 0 -2.078125 0.625q-0.734375 0.640625 -0.734375 1.828125zm1.0625 -10.89061q0 1.34375 0.75 2.0468597q0.765625 0.6875 2.125 0.6875q2.859375 0 2.859375 -2.7656097q0 -2.890625 -2.890625 -2.890625q-1.375 0 -2.109375 0.734375q-0.734375 0.734375 -0.734375 2.1875zm13.6484375 -4.109375l0 8.32811q0 1.578125 0.71875 2.359375q0.71875 0.765625 2.234375 0.765625q2.015625 0 2.9375 -1.09375q0.9375 -1.109375 0.9375 -3.609375l0 -6.7499847l1.953125 0l0 12.843735l-1.609375 0l-0.28125 -1.71875l-0.109375 0q-0.59375 0.9375 -1.65625 1.453125q-1.0625 0.5 -2.421875 0.5q-2.34375 0 -3.515625 -1.109375q-1.15625 -1.125 -1.15625 -3.5625l0 -8.406235l1.96875 0zm18.761719 -0.234375q0.859375 0 1.53125 0.140625l-0.265625 1.796875q-0.796875 -0.171875 -1.40625 -0.171875q-1.5625 0 -2.671875 1.265625q-1.09375 1.265625 -1.09375 3.1562347l0 6.890625l-1.953125 0l0 -12.843735l1.609375 0l0.21875 2.375l0.09375 0q0.71875 -1.25 1.71875 -1.921875q1.015625 -0.6875 2.21875 -0.6875zm11.84375 13.07811l-0.390625 -1.828125l-0.09375 0q-0.96875 1.203125 -1.921875 1.640625q-0.953125 0.421875 -2.375 0.421875q-1.921875 0 -3.0 -0.984375q-1.078125 -0.984375 -1.078125 -2.796875q0 -3.8906097 6.21875 -4.0781097l2.171875 -0.078125l0 -0.796875q0 -1.515625 -0.65625 -2.234375q-0.640625 -0.71875 -2.0625 -0.71875q-1.609375 0 -3.640625 0.984375l-0.59375 -1.484375q0.953125 -0.515625 2.078125 -0.8125q1.125 -0.296875 2.265625 -0.296875q2.296875 0 3.40625 1.03125q1.109375 1.015625 1.109375 3.265625l0 8.76561l-1.4375 0zm-4.40625 -1.375q1.828125 0 2.859375 -0.984375q1.03125 -1.0 1.03125 -2.796875l0 -1.15625l-1.9375 0.078125q-2.328125 0.078125 -3.359375 0.71875q-1.015625 0.640625 -1.015625 1.984375q0 1.0625 0.640625 1.609375q0.640625 0.546875 1.78125 0.546875zm14.003906 0q0.515625 0 0.984375 -0.078125q0.484375 -0.078125 0.765625 -0.15625l0 1.484375q-0.3125 0.15625 -0.9375 0.25q-0.609375 0.109375 -1.09375 0.109375q-3.734375 0 -3.734375 -3.921875l0 -7.6406097l-1.84375 0l0 -0.9375l1.84375 -0.8125l0.828125 -2.75l1.125 0l0 2.984375l3.71875 0l0 1.515625l-3.71875 0l0 7.5468597q0 1.171875 0.546875 1.796875q0.546875 0.609375 1.515625 0.609375zm6.2695312 1.375l-1.953125 0l0 -12.843735l1.953125 0l0 12.843735zm-2.109375 -16.32811q0 -0.671875 0.328125 -0.96875q0.328125 -0.3125 0.8125 -0.3125q0.46875 0 0.8125 0.3125q0.34375 0.3125 0.34375 0.96875q0 0.65625 -0.34375 0.984375q-0.34375 0.3125 -0.8125 0.3125q-0.484375 0 -0.8125 -0.3125q-0.328125 -0.328125 -0.328125 -0.984375zm17.320312 9.89061q0 3.140625 -1.59375 4.90625q-1.578125 1.765625 -4.359375 1.765625q-1.734375 0 -3.078125 -0.8125q-1.328125 -0.8125 -2.0625 -2.3125q-0.71875 -1.515625 -0.71875 -3.546875q0 -3.1406097 1.5625 -4.8906097q1.578125 -1.75 4.375 -1.75q2.6875 0 4.28125 1.796875q1.59375 1.78125 1.59375 4.8437347zm-9.796875 0q0 2.46875 0.984375 3.765625q0.984375 1.28125 2.90625 1.28125q1.90625 0 2.890625 -1.28125q1.0 -1.296875 1.0 -3.765625q0 -2.4531097 -1.0 -3.7187347q-0.984375 -1.265625 -2.921875 -1.265625q-1.90625 0 -2.890625 1.25q-0.96875 1.25 -0.96875 3.7343597zm21.996094 6.4375l0 -8.312485q0 -1.5625 -0.71875 -2.328125q-0.71875 -0.78125 -2.234375 -0.78125q-2.015625 0 -2.953125 1.09375q-0.9375 1.078125 -0.9375 3.5937347l0 6.734375l-1.953125 0l0 -12.843735l1.578125 0l0.328125 1.75l0.09375 0q0.59375 -0.9375 1.671875 -1.453125q1.078125 -0.53125 2.40625 -0.53125q2.3125 0 3.484375 1.125q1.171875 1.109375 1.171875 3.578125l0 8.374985l-1.9375 0zm20.917969 -1.71875l-0.109375 0q-1.34375 1.953125 -4.03125 1.953125q-2.515625 0 -3.921875 -1.71875q-1.40625 -1.734375 -1.40625 -4.90625q0 -3.1718597 1.40625 -4.9218597q1.40625 -1.765625 3.921875 -1.765625q2.609375 0 4.0 1.890625l0.15625 0l-0.078125 -0.921875l-0.046875 -0.90625l0 -5.21875l1.9375 0l0 18.23436l-1.578125 0l-0.25 -1.71875zm-3.890625 0.328125q1.984375 0 2.875 -1.078125q0.90625 -1.09375 0.90625 -3.515625l0 -0.40625q0 -2.7343597 -0.90625 -3.8906097q-0.90625 -1.171875 -2.90625 -1.171875q-1.703125 0 -2.625 1.328125q-0.90625 1.328125 -0.90625 3.7656097q0 2.453125 0.90625 3.71875q0.90625 1.25 2.65625 1.25zm11.410156 -15.749985l0.171875 0.265625q-0.296875 1.171875 -0.875 2.734375q-0.578125 1.546875 -1.203125 2.875l-1.421875 0q0.8125 -3.34375 1.1875 -5.875l2.140625 0zm4.34375 4.296875l0 8.32811q0 1.578125 0.71875 2.359375q0.71875 0.765625 2.234375 0.765625q2.015625 0 2.9375 -1.09375q0.9375 -1.109375 0.9375 -3.609375l0 -6.7499847l1.953125 0l0 12.843735l-1.609375 0l-0.28125 -1.71875l-0.109375 0q-0.59375 0.9375 -1.65625 1.453125q-1.0625 0.5 -2.421875 0.5q-2.34375 0 -3.515625 -1.109375q-1.15625 -1.125 -1.15625 -3.5625l0 -8.406235l1.96875 0zm21.699219 12.843735l0 -8.312485q0 -1.5625 -0.71875 -2.328125q-0.71875 -0.78125 -2.234375 -0.78125q-2.015625 0 -2.953125 1.09375q-0.9375 1.078125 -0.9375 3.5937347l0 6.734375l-1.953125 0l0 -12.843735l1.578125 0l0.328125 1.75l0.09375 0q0.59375 -0.9375 1.671875 -1.453125q1.078125 -0.53125 2.40625 -0.53125q2.3125 0 3.484375 1.125q1.171875 1.109375 1.171875 3.578125l0 8.374985l-1.9375 0zm22.011703 0l-9.546875 0l0 -17.14061l9.546875 0l0 1.78125l-7.5625 0l0 5.515625l7.109375 0l0 1.75l-7.109375 0l0 6.3124847l7.5625 0l0 1.78125zm6.3164062 0l-4.875 -12.843735l2.09375 0l2.765625 7.6093597q0.9375 2.671875 1.09375 3.46875l0.09375 0q0.125 -0.609375 0.8125 -2.5625q0.6875 -1.953125 3.078125 -8.51561l2.09375 0l-4.875 12.843735l-2.28125 0zm14.6328125 0.234375q-2.84375 0 -4.5 -1.734375q-1.640625 -1.734375 -1.640625 -4.8125q0 -3.1093597 1.53125 -4.9374847q1.53125 -1.828125 4.109375 -1.828125q2.421875 0 3.828125 1.59375q1.40625 1.578125 1.40625 4.1875l0 1.2187347l-8.859375 0q0.0625 2.265625 1.140625 3.4375q1.09375 1.171875 3.0625 1.171875q2.078125 0 4.09375 -0.859375l0 1.734375q-1.03125 0.4375 -1.953125 0.625q-0.90625 0.203125 -2.21875 0.203125zm-0.515625 -11.687485q-1.546875 0 -2.46875 1.015625q-0.921875 1.0 -1.09375 2.78125l6.71875 0q0 -1.84375 -0.828125 -2.8125q-0.8125 -0.984375 -2.328125 -0.984375zm17.355469 11.45311l0 -8.312485q0 -1.5625 -0.71875 -2.328125q-0.71875 -0.78125 -2.234375 -0.78125q-2.015625 0 -2.953125 1.09375q-0.9375 1.078125 -0.9375 3.5937347l0 6.734375l-1.953125 0l0 -12.843735l1.578125 0l0.328125 1.75l0.09375 0q0.59375 -0.9375 1.671875 -1.453125q1.078125 -0.53125 2.40625 -0.53125q2.3125 0 3.484375 1.125q1.171875 1.109375 1.171875 3.578125l0 8.374985l-1.9375 0zm10.089844 -1.375q0.515625 0 0.984375 -0.078125q0.484375 -0.078125 0.765625 -0.15625l0 1.484375q-0.3125 0.15625 -0.9375 0.25q-0.609375 0.109375 -1.09375 0.109375q-3.734375 0 -3.734375 -3.921875l0 -7.6406097l-1.84375 0l0 -0.9375l1.84375 -0.8125l0.828125 -2.75l1.125 0l0 2.984375l3.71875 0l0 1.515625l-3.71875 0l0 7.5468597q0 1.171875 0.546875 1.796875q0.546875 0.609375 1.515625 0.609375zm10.269531 0.125q0 -0.78125 0.359375 -1.1875q0.359375 -0.40625 1.03125 -0.40625q0.671875 0 1.046875 0.40625q0.390625 0.40625 0.390625 1.1875q0 0.765625 -0.390625 1.1875q-0.390625 0.40625 -1.046875 0.40625q-0.609375 0 -1.0 -0.375q-0.390625 -0.375 -0.390625 -1.21875zm0 -10.343735q0 -1.578125 1.390625 -1.578125q1.4375 0 1.4375 1.578125q0 0.765625 -0.390625 1.171875q-0.390625 0.40625 -1.046875 0.40625q-0.609375 0 -1.0 -0.359375q-0.390625 -0.375 -0.390625 -1.21875z" fill-rule="nonzero"></path><path fill="#695d46" d="m58.98613 311.38998l0 -1.78125l5.75 0l0 1.78125l-5.75 0z" fill-rule="nonzero"></path><path fill="#695d46" d="m97.34941 316.93686l-1.984375 0l0 -15.359375l-5.421875 0l0 -1.78125l12.84375 0l0 1.78125l-5.4375 0l0 15.359375zm5.6835938 -12.84375l2.078125 0l2.8125 7.328125q0.921875 2.5 1.15625 3.609375l0.09375 0q0.140625 -0.59375 0.625 -2.03125q0.5 -1.453125 3.1875 -8.90625l2.09375 0l-5.53125 14.625q-0.8125 2.171875 -1.90625 3.078125q-1.09375 0.90625 -2.6875 0.90625q-0.890625 0 -1.765625 -0.203125l0 -1.546875q0.640625 0.140625 1.4375 0.140625q2.015625 0 2.859375 -2.25l0.71875 -1.828125l-5.171875 -12.921875zm20.109375 13.078125q-1.265625 0 -2.296875 -0.453125q-1.03125 -0.46875 -1.734375 -1.4375l-0.140625 0q0.140625 1.125 0.140625 2.140625l0 5.28125l-1.953125 0l0 -18.609375l1.578125 0l0.28125 1.75l0.09375 0q0.75 -1.046875 1.734375 -1.515625q1.0 -0.46875 2.296875 -0.46875q2.546875 0 3.9375 1.75q1.390625 1.734375 1.390625 4.890625q0 3.171875 -1.421875 4.921875q-1.40625 1.75 -3.90625 1.75zm-0.28125 -11.65625q-1.96875 0 -2.859375 1.09375q-0.875 1.078125 -0.890625 3.453125l0 0.4375q0 2.703125 0.890625 3.875q0.90625 1.171875 2.90625 1.171875q1.65625 0 2.59375 -1.34375q0.953125 -1.359375 0.953125 -3.71875q0 -2.40625 -0.953125 -3.6875q-0.9375 -1.28125 -2.640625 -1.28125zm14.425781 11.65625q-2.84375 0 -4.5 -1.734375q-1.640625 -1.734375 -1.640625 -4.8125q0 -3.109375 1.53125 -4.9375q1.53125 -1.828125 4.109375 -1.828125q2.421875 0 3.828125 1.59375q1.40625 1.578125 1.40625 4.1875l0 1.21875l-8.859375 0q0.0625 2.265625 1.140625 3.4375q1.09375 1.171875 3.0625 1.171875q2.078125 0 4.09375 -0.859375l0 1.734375q-1.03125 0.4375 -1.953125 0.625q-0.90625 0.203125 -2.21875 0.203125zm-0.515625 -11.6875q-1.546875 0 -2.46875 1.015625q-0.921875 1.0 -1.09375 2.78125l6.71875 0q0 -1.84375 -0.828125 -2.8125q-0.8125 -0.984375 -2.328125 -0.984375zm16.839844 7.953125q0 1.78125 -1.34375 2.765625q-1.328125 0.96875 -3.734375 0.96875q-2.5625 0 -3.984375 -0.8125l0 -1.796875q0.921875 0.46875 1.984375 0.734375q1.0625 0.265625 2.046875 0.265625q1.515625 0 2.328125 -0.484375q0.828125 -0.484375 0.828125 -1.484375q0 -0.75 -0.65625 -1.28125q-0.640625 -0.53125 -2.53125 -1.265625q-1.78125 -0.65625 -2.546875 -1.15625q-0.75 -0.5 -1.125 -1.125q-0.359375 -0.640625 -0.359375 -1.515625q0 -1.578125 1.265625 -2.484375q1.28125 -0.90625 3.515625 -0.90625q2.0625 0 4.046875 0.84375l-0.6875 1.578125q-1.9375 -0.796875 -3.5 -0.796875q-1.390625 0 -2.09375 0.4375q-0.703125 0.4375 -0.703125 1.1875q0 0.515625 0.265625 0.890625q0.265625 0.359375 0.84375 0.6875q0.59375 0.328125 2.25 0.953125q2.296875 0.828125 3.09375 1.671875q0.796875 0.84375 0.796875 2.125zm18.152344 1.78125l-0.109375 0q-1.34375 1.953125 -4.03125 1.953125q-2.515625 0 -3.921875 -1.71875q-1.40625 -1.734375 -1.40625 -4.90625q0 -3.171875 1.40625 -4.921875q1.40625 -1.765625 3.921875 -1.765625q2.609375 0 4.0 1.890625l0.15625 0l-0.078125 -0.921875l-0.046875 -0.90625l0 -5.21875l1.9375 0l0 18.234375l-1.578125 0l-0.25 -1.71875zm-3.890625 0.328125q1.984375 0 2.875 -1.078125q0.90625 -1.09375 0.90625 -3.515625l0 -0.40625q0 -2.734375 -0.90625 -3.890625q-0.90625 -1.171875 -2.90625 -1.171875q-1.703125 0 -2.625 1.328125q-0.90625 1.328125 -0.90625 3.765625q0 2.453125 0.90625 3.71875q0.90625 1.25 2.65625 1.25zm11.410156 -15.75l0.171875 0.265625q-0.296875 1.171875 -0.875 2.734375q-0.578125 1.546875 -1.203125 2.875l-1.421875 0q0.8125 -3.34375 1.1875 -5.875l2.140625 0zm4.46875 17.140625l-1.953125 0l0 -12.84375l1.953125 0l0 12.84375zm-2.109375 -16.328125q0 -0.671875 0.328125 -0.96875q0.328125 -0.3125 0.8125 -0.3125q0.46875 0 0.8125 0.3125q0.34375 0.3125 0.34375 0.96875q0 0.65625 -0.34375 0.984375q-0.34375 0.3125 -0.8125 0.3125q-0.484375 0 -0.8125 -0.3125q-0.328125 -0.328125 -0.328125 -0.984375zm15.0234375 16.328125l0 -8.3125q0 -1.5625 -0.71875 -2.328125q-0.71875 -0.78125 -2.234375 -0.78125q-2.015625 0 -2.953125 1.09375q-0.9375 1.078125 -0.9375 3.59375l0 6.734375l-1.953125 0l0 -12.84375l1.578125 0l0.328125 1.75l0.09375 0q0.59375 -0.9375 1.671875 -1.453125q1.078125 -0.53125 2.40625 -0.53125q2.3125 0 3.484375 1.125q1.171875 1.109375 1.171875 3.578125l0 8.375l-1.9375 0zm8.746094 0l-4.875 -12.84375l2.09375 0l2.765625 7.609375q0.9375 2.671875 1.09375 3.46875l0.09375 0q0.125 -0.609375 0.8125 -2.5625q0.6875 -1.953125 3.078125 -8.515625l2.09375 0l-4.875 12.84375l-2.28125 0zm11.1640625 0l-1.953125 0l0 -12.84375l1.953125 0l0 12.84375zm-2.109375 -16.328125q0 -0.671875 0.328125 -0.96875q0.328125 -0.3125 0.8125 -0.3125q0.46875 0 0.8125 0.3125q0.34375 0.3125 0.34375 0.96875q0 0.65625 -0.34375 0.984375q-0.34375 0.3125 -0.8125 0.3125q-0.484375 0 -0.8125 -0.3125q-0.328125 -0.328125 -0.328125 -0.984375zm10.3828125 14.953125q0.515625 0 0.984375 -0.078125q0.484375 -0.078125 0.765625 -0.15625l0 1.484375q-0.3125 0.15625 -0.9375 0.25q-0.609375 0.109375 -1.09375 0.109375q-3.734375 0 -3.734375 -3.921875l0 -7.640625l-1.84375 0l0 -0.9375l1.84375 -0.8125l0.828125 -2.75l1.125 0l0 2.984375l3.71875 0l0 1.515625l-3.71875 0l0 7.546875q0 1.171875 0.546875 1.796875q0.546875 0.609375 1.515625 0.609375zm9.738281 1.609375q-2.84375 0 -4.5 -1.734375q-1.640625 -1.734375 -1.640625 -4.8125q0 -3.109375 1.53125 -4.9375q1.53125 -1.828125 4.109375 -1.828125q2.421875 0 3.828125 1.59375q1.40625 1.578125 1.40625 4.1875l0 1.21875l-8.859375 0q0.0625 2.265625 1.140625 3.4375q1.09375 1.171875 3.0625 1.171875q2.078125 0 4.09375 -0.859375l0 1.734375q-1.03125 0.4375 -1.953125 0.625q-0.90625 0.203125 -2.21875 0.203125zm-0.515625 -11.6875q-1.546875 0 -2.46875 1.015625q-0.921875 1.0 -1.09375 2.78125l6.71875 0q0 -1.84375 -0.828125 -2.8125q-0.8125 -0.984375 -2.328125 -0.984375zm-1.359375 -3.390625q0.5625 -0.71875 1.203125 -1.75q0.65625 -1.03125 1.03125 -1.796875l2.375 0l0 0.25q-0.515625 0.765625 -1.546875 1.875q-1.015625 1.109375 -1.765625 1.71875l-1.296875 0l0 -0.296875zm18.199219 11.34375q0 1.78125 -1.34375 2.765625q-1.328125 0.96875 -3.734375 0.96875q-2.5625 0 -3.984375 -0.8125l0 -1.796875q0.921875 0.46875 1.984375 0.734375q1.0625 0.265625 2.046875 0.265625q1.515625 0 2.328125 -0.484375q0.828125 -0.484375 0.828125 -1.484375q0 -0.75 -0.65625 -1.28125q-0.640625 -0.53125 -2.53125 -1.265625q-1.78125 -0.65625 -2.546875 -1.15625q-0.75 -0.5 -1.125 -1.125q-0.359375 -0.640625 -0.359375 -1.515625q0 -1.578125 1.265625 -2.484375q1.28125 -0.90625 3.515625 -0.90625q2.0625 0 4.046875 0.84375l-0.6875 1.578125q-1.9375 -0.796875 -3.5 -0.796875q-1.390625 0 -2.09375 0.4375q-0.703125 0.4375 -0.703125 1.1875q0 0.515625 0.265625 0.890625q0.265625 0.359375 0.84375 0.6875q0.59375 0.328125 2.25 0.953125q2.296875 0.828125 3.09375 1.671875q0.796875 0.84375 0.796875 2.125z" fill-rule="nonzero"></path><path fill="#695d46" d="m58.98613 344.38998l0 -1.78125l5.75 0l0 1.78125l-5.75 0z" fill-rule="nonzero"></path><path fill="#695d46" d="m102.94316 337.79623q0 2.59375 -1.78125 4.0q-1.765625 1.40625 -5.078125 1.40625l-2.015625 0l0 6.734375l-1.984375 0l0 -17.140625l4.4375 0q6.421875 0 6.421875 5.0zm-8.875 3.6875l1.796875 0q2.65625 0 3.828125 -0.84375q1.1875 -0.859375 1.1875 -2.75q0 -1.703125 -1.109375 -2.53125q-1.109375 -0.828125 -3.46875 -0.828125l-2.234375 0l0 6.953125zm18.027344 -4.625q0.859375 0 1.53125 0.140625l-0.265625 1.796875q-0.796875 -0.171875 -1.40625 -0.171875q-1.5625 0 -2.671875 1.265625q-1.09375 1.265625 -1.09375 3.15625l0 6.890625l-1.953125 0l0 -12.84375l1.609375 0l0.21875 2.375l0.09375 0q0.71875 -1.25 1.71875 -1.921875q1.015625 -0.6875 2.21875 -0.6875zm9.359375 13.3125q-2.84375 0 -4.5 -1.734375q-1.640625 -1.734375 -1.640625 -4.8125q0 -3.109375 1.53125 -4.9375q1.53125 -1.828125 4.109375 -1.828125q2.421875 0 3.828125 1.59375q1.40625 1.578125 1.40625 4.1875l0 1.21875l-8.859375 0q0.0625 2.265625 1.140625 3.4375q1.09375 1.171875 3.0625 1.171875q2.078125 0 4.09375 -0.859375l0 1.734375q-1.03125 0.4375 -1.953125 0.625q-0.90625 0.203125 -2.21875 0.203125zm-0.515625 -11.6875q-1.546875 0 -2.46875 1.015625q-0.921875 1.0 -1.09375 2.78125l6.71875 0q0 -1.84375 -0.828125 -2.8125q-0.8125 -0.984375 -2.328125 -0.984375zm16.839844 7.953125q0 1.78125 -1.34375 2.765625q-1.328125 0.96875 -3.734375 0.96875q-2.5625 0 -3.984375 -0.8125l0 -1.796875q0.921875 0.46875 1.984375 0.734375q1.0625 0.265625 2.046875 0.265625q1.515625 0 2.328125 -0.484375q0.828125 -0.484375 0.828125 -1.484375q0 -0.75 -0.65625 -1.28125q-0.640625 -0.53125 -2.53125 -1.265625q-1.78125 -0.65625 -2.546875 -1.15625q-0.75 -0.5 -1.125 -1.125q-0.359375 -0.640625 -0.359375 -1.515625q0 -1.578125 1.265625 -2.484375q1.28125 -0.90625 3.515625 -0.90625q2.0625 0 4.046875 0.84375l-0.6875 1.578125q-1.9375 -0.796875 -3.5 -0.796875q-1.390625 0 -2.09375 0.4375q-0.703125 0.4375 -0.703125 1.1875q0 0.515625 0.265625 0.890625q0.265625 0.359375 0.84375 0.6875q0.59375 0.328125 2.25 0.953125q2.296875 0.828125 3.09375 1.671875q0.796875 0.84375 0.796875 2.125zm7.3242188 2.125q0.515625 0 0.984375 -0.078125q0.484375 -0.078125 0.765625 -0.15625l0 1.484375q-0.3125 0.15625 -0.9375 0.25q-0.609375 0.109375 -1.09375 0.109375q-3.734375 0 -3.734375 -3.921875l0 -7.640625l-1.84375 0l0 -0.9375l1.84375 -0.8125l0.828125 -2.75l1.125 0l0 2.984375l3.71875 0l0 1.515625l-3.71875 0l0 7.546875q0 1.171875 0.546875 1.796875q0.546875 0.609375 1.515625 0.609375zm12.222656 1.375l-0.390625 -1.828125l-0.09375 0q-0.96875 1.203125 -1.921875 1.640625q-0.953125 0.421875 -2.375 0.421875q-1.921875 0 -3.0 -0.984375q-1.078125 -0.984375 -1.078125 -2.796875q0 -3.890625 6.21875 -4.078125l2.171875 -0.078125l0 -0.796875q0 -1.515625 -0.65625 -2.234375q-0.640625 -0.71875 -2.0625 -0.71875q-1.609375 0 -3.640625 0.984375l-0.59375 -1.484375q0.953125 -0.515625 2.078125 -0.8125q1.125 -0.296875 2.265625 -0.296875q2.296875 0 3.40625 1.03125q1.109375 1.015625 1.109375 3.265625l0 8.765625l-1.4375 0zm-4.40625 -1.375q1.828125 0 2.859375 -0.984375q1.03125 -1.0 1.03125 -2.796875l0 -1.15625l-1.9375 0.078125q-2.328125 0.078125 -3.359375 0.71875q-1.015625 0.640625 -1.015625 1.984375q0 1.0625 0.640625 1.609375q0.640625 0.546875 1.78125 0.546875zm14.003906 0q0.515625 0 0.984375 -0.078125q0.484375 -0.078125 0.765625 -0.15625l0 1.484375q-0.3125 0.15625 -0.9375 0.25q-0.609375 0.109375 -1.09375 0.109375q-3.734375 0 -3.734375 -3.921875l0 -7.640625l-1.84375 0l0 -0.9375l1.84375 -0.8125l0.828125 -2.75l1.125 0l0 2.984375l3.71875 0l0 1.515625l-3.71875 0l0 7.546875q0 1.171875 0.546875 1.796875q0.546875 0.609375 1.515625 0.609375zm6.2695312 1.375l-1.953125 0l0 -12.84375l1.953125 0l0 12.84375zm-2.109375 -16.328125q0 -0.671875 0.328125 -0.96875q0.328125 -0.3125 0.8125 -0.3125q0.46875 0 0.8125 0.3125q0.34375 0.3125 0.34375 0.96875q0 0.65625 -0.34375 0.984375q-0.34375 0.3125 -0.8125 0.3125q-0.484375 0 -0.8125 -0.3125q-0.328125 -0.328125 -0.328125 -0.984375zm17.320312 9.890625q0 3.140625 -1.59375 4.90625q-1.578125 1.765625 -4.359375 1.765625q-1.734375 0 -3.078125 -0.8125q-1.328125 -0.8125 -2.0625 -2.3125q-0.71875 -1.515625 -0.71875 -3.546875q0 -3.140625 1.5625 -4.890625q1.578125 -1.75 4.375 -1.75q2.6875 0 4.28125 1.796875q1.59375 1.78125 1.59375 4.84375zm-9.796875 0q0 2.46875 0.984375 3.765625q0.984375 1.28125 2.90625 1.28125q1.90625 0 2.890625 -1.28125q1.0 -1.296875 1.0 -3.765625q0 -2.453125 -1.0 -3.71875q-0.984375 -1.265625 -2.921875 -1.265625q-1.90625 0 -2.890625 1.25q-0.96875 1.25 -0.96875 3.734375zm21.996094 6.4375l0 -8.3125q0 -1.5625 -0.71875 -2.328125q-0.71875 -0.78125 -2.234375 -0.78125q-2.015625 0 -2.953125 1.09375q-0.9375 1.078125 -0.9375 3.59375l0 6.734375l-1.953125 0l0 -12.84375l1.578125 0l0.328125 1.75l0.09375 0q0.59375 -0.9375 1.671875 -1.453125q1.078125 -0.53125 2.40625 -0.53125q2.3125 0 3.484375 1.125q1.171875 1.109375 1.171875 3.578125l0 8.375l-1.9375 0zm14.214844 -3.5q0 1.78125 -1.34375 2.765625q-1.328125 0.96875 -3.734375 0.96875q-2.5625 0 -3.984375 -0.8125l0 -1.796875q0.921875 0.46875 1.984375 0.734375q1.0625 0.265625 2.046875 0.265625q1.515625 0 2.328125 -0.484375q0.828125 -0.484375 0.828125 -1.484375q0 -0.75 -0.65625 -1.28125q-0.640625 -0.53125 -2.53125 -1.265625q-1.78125 -0.65625 -2.546875 -1.15625q-0.75 -0.5 -1.125 -1.125q-0.359375 -0.640625 -0.359375 -1.515625q0 -1.578125 1.265625 -2.484375q1.28125 -0.90625 3.515625 -0.90625q2.0625 0 4.046875 0.84375l-0.6875 1.578125q-1.9375 -0.796875 -3.5 -0.796875q-1.390625 0 -2.09375 0.4375q-0.703125 0.4375 -0.703125 1.1875q0 0.515625 0.265625 0.890625q0.265625 0.359375 0.84375 0.6875q0.59375 0.328125 2.25 0.953125q2.296875 0.828125 3.09375 1.671875q0.796875 0.84375 0.796875 2.125z" fill-rule="nonzero"></path><path fill="#695d46" d="m58.98613 377.38998l0 -1.78125l5.75 0l0 1.78125l-5.75 0z" fill-rule="nonzero"></path><path fill="#695d46" d="m94.06816 382.93686l-1.984375 0l0 -17.140625l9.546875 0l0 1.78125l-7.5625 0l0 6.265625l7.109375 0l0 1.765625l-7.109375 0l0 7.328125zm18.011719 0l-0.390625 -1.828125l-0.09375 0q-0.96875 1.203125 -1.921875 1.640625q-0.953125 0.421875 -2.375 0.421875q-1.921875 0 -3.0 -0.984375q-1.078125 -0.984375 -1.078125 -2.796875q0 -3.890625 6.21875 -4.078125l2.171875 -0.078125l0 -0.796875q0 -1.515625 -0.65625 -2.234375q-0.640625 -0.71875 -2.0625 -0.71875q-1.609375 0 -3.640625 0.984375l-0.59375 -1.484375q0.953125 -0.515625 2.078125 -0.8125q1.125 -0.296875 2.265625 -0.296875q2.296875 0 3.40625 1.03125q1.109375 1.015625 1.109375 3.265625l0 8.765625l-1.4375 0zm-4.40625 -1.375q1.828125 0 2.859375 -0.984375q1.03125 -1.0 1.03125 -2.796875l0 -1.15625l-1.9375 0.078125q-2.328125 0.078125 -3.359375 0.71875q-1.015625 0.640625 -1.015625 1.984375q0 1.0625 0.640625 1.609375q0.640625 0.546875 1.78125 0.546875zm26.222656 1.375l0 -8.359375q0 -1.53125 -0.65625 -2.296875q-0.65625 -0.765625 -2.046875 -0.765625q-1.8125 0 -2.6875 1.046875q-0.859375 1.03125 -0.859375 3.203125l0 7.171875l-1.9375 0l0 -8.359375q0 -1.53125 -0.65625 -2.296875q-0.65625 -0.765625 -2.0625 -0.765625q-1.828125 0 -2.671875 1.09375q-0.84375 1.09375 -0.84375 3.59375l0 6.734375l-1.953125 0l0 -12.84375l1.578125 0l0.328125 1.75l0.09375 0q0.546875 -0.9375 1.546875 -1.453125q1.0 -0.53125 2.25 -0.53125q3.0 0 3.9375 2.171875l0.09375 0q0.5625 -1.0 1.65625 -1.578125q1.09375 -0.59375 2.484375 -0.59375q2.1875 0 3.265625 1.125q1.078125 1.109375 1.078125 3.578125l0 8.375l-1.9375 0zm7.9023438 0l-1.953125 0l0 -12.84375l1.953125 0l0 12.84375zm-2.109375 -16.328125q0 -0.671875 0.328125 -0.96875q0.328125 -0.3125 0.8125 -0.3125q0.46875 0 0.8125 0.3125q0.34375 0.3125 0.34375 0.96875q0 0.65625 -0.34375 0.984375q-0.34375 0.3125 -0.8125 0.3125q-0.484375 0 -0.8125 -0.3125q-0.328125 -0.328125 -0.328125 -0.984375zm8.1796875 16.328125l-1.953125 0l0 -18.234375l1.953125 0l0 18.234375zm6.0703125 0l-1.953125 0l0 -18.234375l1.953125 0l0 18.234375zm9.5390625 0.234375q-2.84375 0 -4.5 -1.734375q-1.640625 -1.734375 -1.640625 -4.8125q0 -3.109375 1.53125 -4.9375q1.53125 -1.828125 4.109375 -1.828125q2.421875 0 3.828125 1.59375q1.40625 1.578125 1.40625 4.1875l0 1.21875l-8.859375 0q0.0625 2.265625 1.140625 3.4375q1.09375 1.171875 3.0625 1.171875q2.078125 0 4.09375 -0.859375l0 1.734375q-1.03125 0.4375 -1.953125 0.625q-0.90625 0.203125 -2.21875 0.203125zm-0.515625 -11.6875q-1.546875 0 -2.46875 1.015625q-0.921875 1.0 -1.09375 2.78125l6.71875 0q0 -1.84375 -0.828125 -2.8125q-0.8125 -0.984375 -2.328125 -0.984375zm16.839844 7.953125q0 1.78125 -1.34375 2.765625q-1.328125 0.96875 -3.734375 0.96875q-2.5625 0 -3.984375 -0.8125l0 -1.796875q0.921875 0.46875 1.984375 0.734375q1.0625 0.265625 2.046875 0.265625q1.515625 0 2.328125 -0.484375q0.828125 -0.484375 0.828125 -1.484375q0 -0.75 -0.65625 -1.28125q-0.640625 -0.53125 -2.53125 -1.265625q-1.78125 -0.65625 -2.546875 -1.15625q-0.75 -0.5 -1.125 -1.125q-0.359375 -0.640625 -0.359375 -1.515625q0 -1.578125 1.265625 -2.484375q1.28125 -0.90625 3.515625 -0.90625q2.0625 0 4.046875 0.84375l-0.6875 1.578125q-1.9375 -0.796875 -3.5 -0.796875q-1.390625 0 -2.09375 0.4375q-0.703125 0.4375 -0.703125 1.1875q0 0.515625 0.265625 0.890625q0.265625 0.359375 0.84375 0.6875q0.59375 0.328125 2.25 0.953125q2.296875 0.828125 3.09375 1.671875q0.796875 0.84375 0.796875 2.125z" fill-rule="nonzero"></path><path fill="#695d46" d="m58.98613 410.38998l0 -1.78125l5.75 0l0 1.78125l-5.75 0z" fill-rule="nonzero"></path><path fill="#695d46" d="m97.34941 415.93686l-1.984375 0l0 -15.359375l-5.421875 0l0 -1.78125l12.84375 0l0 1.78125l-5.4375 0l0 15.359375zm13.574219 -13.078125q0.859375 0 1.53125 0.140625l-0.265625 1.796875q-0.796875 -0.171875 -1.40625 -0.171875q-1.5625 0 -2.671875 1.265625q-1.09375 1.265625 -1.09375 3.15625l0 6.890625l-1.953125 0l0 -12.84375l1.609375 0l0.21875 2.375l0.09375 0q0.71875 -1.25 1.71875 -1.921875q1.015625 -0.6875 2.21875 -0.6875zm11.84375 13.078125l-0.390625 -1.828125l-0.09375 0q-0.96875 1.203125 -1.921875 1.640625q-0.953125 0.421875 -2.375 0.421875q-1.921875 0 -3.0 -0.984375q-1.078125 -0.984375 -1.078125 -2.796875q0 -3.890625 6.21875 -4.078125l2.171875 -0.078125l0 -0.796875q0 -1.515625 -0.65625 -2.234375q-0.640625 -0.71875 -2.0625 -0.71875q-1.609375 0 -3.640625 0.984375l-0.59375 -1.484375q0.953125 -0.515625 2.078125 -0.8125q1.125 -0.296875 2.265625 -0.296875q2.296875 0 3.40625 1.03125q1.109375 1.015625 1.109375 3.265625l0 8.765625l-1.4375 0zm-4.40625 -1.375q1.828125 0 2.859375 -0.984375q1.03125 -1.0 1.03125 -2.796875l0 -1.15625l-1.9375 0.078125q-2.328125 0.078125 -3.359375 0.71875q-1.015625 0.640625 -1.015625 1.984375q0 1.0625 0.640625 1.609375q0.640625 0.546875 1.78125 0.546875zm14.988281 1.609375q-2.796875 0 -4.328125 -1.71875q-1.53125 -1.71875 -1.53125 -4.859375q0 -3.21875 1.546875 -4.96875q1.5625 -1.765625 4.4375 -1.765625q0.921875 0 1.84375 0.203125q0.9375 0.1875 1.453125 0.46875l-0.59375 1.640625q-0.640625 -0.25 -1.40625 -0.421875q-0.765625 -0.171875 -1.34375 -0.171875q-3.921875 0 -3.921875 5.0q0 2.359375 0.953125 3.625q0.96875 1.265625 2.84375 1.265625q1.59375 0 3.28125 -0.6875l0 1.71875q-1.28125 0.671875 -3.234375 0.671875zm8.207031 -6.8125q0.5 -0.71875 1.53125 -1.875l4.15625 -4.390625l2.3125 0l-5.203125 5.46875l5.5625 7.375l-2.359375 0l-4.53125 -6.078125l-1.46875 1.265625l0 4.8125l-1.921875 0l0 -18.234375l1.921875 0l0 9.671875q0 0.640625 -0.09375 1.984375l0.09375 0zm18.957031 3.078125q0 1.78125 -1.34375 2.765625q-1.328125 0.96875 -3.734375 0.96875q-2.5625 0 -3.984375 -0.8125l0 -1.796875q0.921875 0.46875 1.984375 0.734375q1.0625 0.265625 2.046875 0.265625q1.515625 0 2.328125 -0.484375q0.828125 -0.484375 0.828125 -1.484375q0 -0.75 -0.65625 -1.28125q-0.640625 -0.53125 -2.53125 -1.265625q-1.78125 -0.65625 -2.546875 -1.15625q-0.75 -0.5 -1.125 -1.125q-0.359375 -0.640625 -0.359375 -1.515625q0 -1.578125 1.265625 -2.484375q1.28125 -0.90625 3.515625 -0.90625q2.0625 0 4.046875 0.84375l-0.6875 1.578125q-1.9375 -0.796875 -3.5 -0.796875q-1.390625 0 -2.09375 0.4375q-0.703125 0.4375 -0.703125 1.1875q0 0.515625 0.265625 0.890625q0.265625 0.359375 0.84375 0.6875q0.59375 0.328125 2.25 0.953125q2.296875 0.828125 3.09375 1.671875q0.796875 0.84375 0.796875 2.125zm15.902344 -13.640625l-6.375 17.140625l-1.953125 0l6.390625 -17.140625l1.9375 0zm16.171875 1.546875q-2.8125 0 -4.453125 1.875q-1.640625 1.875 -1.640625 5.15625q0 3.359375 1.578125 5.203125q1.578125 1.828125 4.5 1.828125q1.796875 0 4.09375 -0.65625l0 1.75q-1.78125 0.671875 -4.40625 0.671875q-3.78125 0 -5.84375 -2.296875q-2.046875 -2.296875 -2.046875 -6.53125q0 -2.640625 0.984375 -4.625q1.0 -2.0 2.859375 -3.078125q1.875 -1.078125 4.40625 -1.078125q2.6875 0 4.703125 0.984375l-0.84375 1.703125q-1.9375 -0.90625 -3.890625 -0.90625zm18.609375 9.15625q0 3.140625 -1.59375 4.90625q-1.578125 1.765625 -4.359375 1.765625q-1.734375 0 -3.078125 -0.8125q-1.328125 -0.8125 -2.0625 -2.3125q-0.71875 -1.515625 -0.71875 -3.546875q0 -3.140625 1.5625 -4.890625q1.578125 -1.75 4.375 -1.75q2.6875 0 4.28125 1.796875q1.59375 1.78125 1.59375 4.84375zm-9.796875 0q0 2.46875 0.984375 3.765625q0.984375 1.28125 2.90625 1.28125q1.90625 0 2.890625 -1.28125q1.0 -1.296875 1.0 -3.765625q0 -2.453125 -1.0 -3.71875q-0.984375 -1.265625 -2.921875 -1.265625q-1.90625 0 -2.890625 1.25q-0.96875 1.25 -0.96875 3.734375zm21.996094 6.4375l0 -8.3125q0 -1.5625 -0.71875 -2.328125q-0.71875 -0.78125 -2.234375 -0.78125q-2.015625 0 -2.953125 1.09375q-0.9375 1.078125 -0.9375 3.59375l0 6.734375l-1.953125 0l0 -12.84375l1.578125 0l0.328125 1.75l0.09375 0q0.59375 -0.9375 1.671875 -1.453125q1.078125 -0.53125 2.40625 -0.53125q2.3125 0 3.484375 1.125q1.171875 1.109375 1.171875 3.578125l0 8.375l-1.9375 0zm11.730469 -11.328125l-3.28125 0l0 11.328125l-1.9375 0l0 -11.328125l-2.296875 0l0 -0.890625l2.296875 -0.703125l0 -0.703125q0 -4.734375 4.140625 -4.734375q1.015625 0 2.390625 0.40625l-0.515625 1.5625q-1.125 -0.375 -1.921875 -0.375q-1.09375 0 -1.625 0.734375q-0.53125 0.734375 -0.53125 2.359375l0 0.828125l3.28125 0l0 1.515625zm7.7578125 11.5625q-2.84375 0 -4.5 -1.734375q-1.640625 -1.734375 -1.640625 -4.8125q0 -3.109375 1.53125 -4.9375q1.53125 -1.828125 4.109375 -1.828125q2.421875 0 3.828125 1.59375q1.40625 1.578125 1.40625 4.1875l0 1.21875l-8.859375 0q0.0625 2.265625 1.140625 3.4375q1.09375 1.171875 3.0625 1.171875q2.078125 0 4.09375 -0.859375l0 1.734375q-1.03125 0.4375 -1.953125 0.625q-0.90625 0.203125 -2.21875 0.203125zm-0.515625 -11.6875q-1.546875 0 -2.46875 1.015625q-0.921875 1.0 -1.09375 2.78125l6.71875 0q0 -1.84375 -0.828125 -2.8125q-0.8125 -0.984375 -2.328125 -0.984375zm-1.359375 -3.390625q0.5625 -0.71875 1.203125 -1.75q0.65625 -1.03125 1.03125 -1.796875l2.375 0l0 0.25q-0.515625 0.765625 -1.546875 1.875q-1.015625 1.109375 -1.765625 1.71875l-1.296875 0l0 -0.296875zm15.7773285 1.765625q0.859375 0 1.53125 0.140625l-0.265625 1.796875q-0.796875 -0.171875 -1.40625 -0.171875q-1.5624847 0 -2.6718597 1.265625q-1.09375 1.265625 -1.09375 3.15625l0 6.890625l-1.953125 0l0 -12.84375l1.609375 0l0.21875 2.375l0.09375 0q0.71875 -1.25 1.71875 -1.921875q1.015625 -0.6875 2.2187347 -0.6875zm9.359375 13.3125q-2.84375 0 -4.5 -1.734375q-1.640625 -1.734375 -1.640625 -4.8125q0 -3.109375 1.53125 -4.9375q1.53125 -1.828125 4.109375 -1.828125q2.421875 0 3.828125 1.59375q1.40625 1.578125 1.40625 4.1875l0 1.21875l-8.859375 0q0.0625 2.265625 1.140625 3.4375q1.09375 1.171875 3.0625 1.171875q2.078125 0 4.09375 -0.859375l0 1.734375q-1.03125 0.4375 -1.953125 0.625q-0.90625 0.203125 -2.21875 0.203125zm-0.515625 -11.6875q-1.546875 0 -2.46875 1.015625q-0.921875 1.0 -1.09375 2.78125l6.71875 0q0 -1.84375 -0.828125 -2.8125q-0.8125 -0.984375 -2.328125 -0.984375zm17.355469 11.453125l0 -8.3125q0 -1.5625 -0.71875 -2.328125q-0.71875 -0.78125 -2.234375 -0.78125q-2.015625 0 -2.953125 1.09375q-0.9375 1.078125 -0.9375 3.59375l0 6.734375l-1.953125 0l0 -12.84375l1.578125 0l0.328125 1.75l0.09375 0q0.59375 -0.9375 1.671875 -1.453125q1.078125 -0.53125 2.40625 -0.53125q2.3125 0 3.484375 1.125q1.171875 1.109375 1.171875 3.578125l0 8.375l-1.9375 0zm11.074219 0.234375q-2.796875 0 -4.328125 -1.71875q-1.53125 -1.71875 -1.53125 -4.859375q0 -3.21875 1.546875 -4.96875q1.5625 -1.765625 4.4375 -1.765625q0.921875 0 1.84375 0.203125q0.9375 0.1875 1.453125 0.46875l-0.59375 1.640625q-0.640625 -0.25 -1.40625 -0.421875q-0.765625 -0.171875 -1.34375 -0.171875q-3.921875 0 -3.921875 5.0q0 2.359375 0.953125 3.625q0.96875 1.265625 2.84375 1.265625q1.59375 0 3.28125 -0.6875l0 1.71875q-1.28125 0.671875 -3.234375 0.671875zm11.707031 0q-2.84375 0 -4.5 -1.734375q-1.640625 -1.734375 -1.640625 -4.8125q0 -3.109375 1.53125 -4.9375q1.53125 -1.828125 4.109375 -1.828125q2.421875 0 3.828125 1.59375q1.40625 1.578125 1.40625 4.1875l0 1.21875l-8.859375 0q0.0625 2.265625 1.140625 3.4375q1.09375 1.171875 3.0625 1.171875q2.078125 0 4.09375 -0.859375l0 1.734375q-1.03125 0.4375 -1.953125 0.625q-0.90625 0.203125 -2.21875 0.203125zm-0.515625 -11.6875q-1.546875 0 -2.46875 1.015625q-0.921875 1.0 -1.09375 2.78125l6.71875 0q0 -1.84375 -0.828125 -2.8125q-0.8125 -0.984375 -2.328125 -0.984375zm16.839844 7.953125q0 1.78125 -1.34375 2.765625q-1.328125 0.96875 -3.734375 0.96875q-2.5625 0 -3.984375 -0.8125l0 -1.796875q0.921875 0.46875 1.984375 0.734375q1.0625 0.265625 2.046875 0.265625q1.515625 0 2.328125 -0.484375q0.828125 -0.484375 0.828125 -1.484375q0 -0.75 -0.65625 -1.28125q-0.640625 -0.53125 -2.53125 -1.265625q-1.78125 -0.65625 -2.546875 -1.15625q-0.75 -0.5 -1.125 -1.125q-0.359375 -0.640625 -0.359375 -1.515625q0 -1.578125 1.265625 -2.484375q1.28125 -0.90625 3.515625 -0.90625q2.0625 0 4.046875 0.84375l-0.6875 1.578125q-1.9375 -0.796875 -3.5 -0.796875q-1.390625 0 -2.09375 0.4375q-0.703125 0.4375 -0.703125 1.1875q0 0.515625 0.265625 0.890625q0.265625 0.359375 0.84375 0.6875q0.59375 0.328125 2.25 0.953125q2.296875 0.828125 3.09375 1.671875q0.796875 0.84375 0.796875 2.125z" fill-rule="nonzero"></path><path fill="#695d46" d="m58.98613 443.38998l0 -1.78125l5.75 0l0 1.78125l-5.75 0z" fill-rule="nonzero"></path><path fill="#695d46" d="m99.41191 433.3431q-2.8125 0 -4.453125 1.875q-1.640625 1.875 -1.640625 5.15625q0 3.359375 1.578125 5.203125q1.578125 1.828125 4.5 1.828125q1.796875 0 4.09375 -0.65625l0 1.75q-1.78125 0.671875 -4.40625 0.671875q-3.78125 0 -5.84375 -2.296875q-2.046875 -2.296875 -2.046875 -6.53125q0 -2.640625 0.984375 -4.625q1.0 -2.0 2.859375 -3.078125q1.875 -1.078125 4.40625 -1.078125q2.6875 0 4.703125 0.984375l-0.84375 1.703125q-1.9375 -0.90625 -3.890625 -0.90625zm15.421875 15.59375l-0.390625 -1.828125l-0.09375 0q-0.96875 1.203125 -1.921875 1.640625q-0.953125 0.421875 -2.375 0.421875q-1.921875 0 -3.0 -0.984375q-1.078125 -0.984375 -1.078125 -2.796875q0 -3.890625 6.21875 -4.078125l2.171875 -0.078125l0 -0.796875q0 -1.515625 -0.65625 -2.234375q-0.640625 -0.71875 -2.0625 -0.71875q-1.609375 0 -3.640625 0.984375l-0.59375 -1.484375q0.953125 -0.515625 2.078125 -0.8125q1.125 -0.296875 2.265625 -0.296875q2.296875 0 3.40625 1.03125q1.109375 1.015625 1.109375 3.265625l0 8.765625l-1.4375 0zm-4.40625 -1.375q1.828125 0 2.859375 -0.984375q1.03125 -1.0 1.03125 -2.796875l0 -1.15625l-1.9375 0.078125q-2.328125 0.078125 -3.359375 0.71875q-1.015625 0.640625 -1.015625 1.984375q0 1.0625 0.640625 1.609375q0.640625 0.546875 1.78125 0.546875zm14.003906 0q0.515625 0 0.984375 -0.078125q0.484375 -0.078125 0.765625 -0.15625l0 1.484375q-0.3125 0.15625 -0.9375 0.25q-0.609375 0.109375 -1.09375 0.109375q-3.734375 0 -3.734375 -3.921875l0 -7.640625l-1.84375 0l0 -0.9375l1.84375 -0.8125l0.828125 -2.75l1.125 0l0 2.984375l3.71875 0l0 1.515625l-3.71875 0l0 7.546875q0 1.171875 0.546875 1.796875q0.546875 0.609375 1.515625 0.609375zm9.738281 1.609375q-2.84375 0 -4.5 -1.734375q-1.640625 -1.734375 -1.640625 -4.8125q0 -3.109375 1.53125 -4.9375q1.53125 -1.828125 4.109375 -1.828125q2.421875 0 3.828125 1.59375q1.40625 1.578125 1.40625 4.1875l0 1.21875l-8.859375 0q0.0625 2.265625 1.140625 3.4375q1.09375 1.171875 3.0625 1.171875q2.078125 0 4.09375 -0.859375l0 1.734375q-1.03125 0.4375 -1.953125 0.625q-0.90625 0.203125 -2.21875 0.203125zm-0.515625 -11.6875q-1.546875 0 -2.46875 1.015625q-0.921875 1.0 -1.09375 2.78125l6.71875 0q0 -1.84375 -0.828125 -2.8125q-0.8125 -0.984375 -2.328125 -0.984375zm-1.359375 -3.390625q0.5625 -0.71875 1.203125 -1.75q0.65625 -1.03125 1.03125 -1.796875l2.375 0l0 0.25q-0.515625 0.765625 -1.546875 1.875q-1.015625 1.109375 -1.765625 1.71875l-1.296875 0l0 -0.296875zm20.433594 2.0l0 1.234375l-2.375 0.28125q0.328125 0.40625 0.578125 1.078125q0.265625 0.65625 0.265625 1.484375q0 1.890625 -1.296875 3.015625q-1.28125 1.125 -3.53125 1.125q-0.578125 0 -1.078125 -0.09375q-1.25 0.65625 -1.25 1.640625q0 0.53125 0.4375 0.78125q0.4375 0.25 1.484375 0.25l2.28125 0q2.078125 0 3.1875 0.890625q1.125 0.875 1.125 2.546875q0 2.140625 -1.71875 3.25q-1.703125 1.125 -4.984375 1.125q-2.515625 0 -3.890625 -0.9375q-1.359375 -0.9375 -1.359375 -2.640625q0 -1.171875 0.75 -2.03125q0.75 -0.859375 2.109375 -1.171875q-0.484375 -0.21875 -0.828125 -0.6875q-0.328125 -0.46875 -0.328125 -1.09375q0 -0.703125 0.375 -1.21875q0.375 -0.53125 1.1875 -1.03125q-1.0 -0.40625 -1.625 -1.390625q-0.625 -0.984375 -0.625 -2.25q0 -2.109375 1.265625 -3.25q1.265625 -1.140625 3.578125 -1.140625q1.015625 0 1.828125 0.234375l4.4375 0zm-10.25 15.0q0 1.046875 0.875 1.578125q0.890625 0.546875 2.53125 0.546875q2.453125 0 3.625 -0.734375q1.171875 -0.734375 1.171875 -1.984375q0 -1.046875 -0.640625 -1.453125q-0.640625 -0.40625 -2.421875 -0.40625l-2.328125 0q-1.328125 0 -2.078125 0.625q-0.734375 0.640625 -0.734375 1.828125zm1.0625 -10.890625q0 1.34375 0.75 2.046875q0.765625 0.6875 2.125 0.6875q2.859375 0 2.859375 -2.765625q0 -2.890625 -2.890625 -2.890625q-1.375 0 -2.109375 0.734375q-0.734375 0.734375 -0.734375 2.1875zm22.914062 2.296875q0 3.140625 -1.59375 4.90625q-1.578125 1.765625 -4.359375 1.765625q-1.734375 0 -3.078125 -0.8125q-1.328125 -0.8125 -2.0625 -2.3125q-0.71875 -1.515625 -0.71875 -3.546875q0 -3.140625 1.5625 -4.890625q1.578125 -1.75 4.375 -1.75q2.6875 0 4.28125 1.796875q1.59375 1.78125 1.59375 4.84375zm-9.796875 0q0 2.46875 0.984375 3.765625q0.984375 1.28125 2.90625 1.28125q1.90625 0 2.890625 -1.28125q1.0 -1.296875 1.0 -3.765625q0 -2.453125 -1.0 -3.71875q-0.984375 -1.265625 -2.921875 -1.265625q-1.90625 0 -2.890625 1.25q-0.96875 1.25 -0.96875 3.734375zm19.058594 -6.640625q0.859375 0 1.53125 0.140625l-0.265625 1.796875q-0.796875 -0.171875 -1.40625 -0.171875q-1.5625 0 -2.671875 1.265625q-1.09375 1.265625 -1.09375 3.15625l0 6.890625l-1.953125 0l0 -12.84375l1.609375 0l0.21875 2.375l0.09375 0q0.71875 -1.25 1.71875 -1.921875q1.015625 -0.6875 2.21875 -0.6875zm5.890625 13.078125l-1.953125 0l0 -12.84375l1.953125 0l0 12.84375zm-2.109375 -16.328125q0 -0.671875 0.328125 -0.96875q0.328125 -0.3125 0.8125 -0.3125q0.46875 0 0.8125 0.3125q0.34375 0.3125 0.34375 0.96875q0 0.65625 -0.34375 0.984375q-0.34375 0.3125 -0.8125 0.3125q-0.484375 0 -0.8125 -0.3125q-0.328125 -0.328125 -0.328125 -0.984375zm11.6484375 16.5625q-2.84375 0 -4.5 -1.734375q-1.640625 -1.734375 -1.640625 -4.8125q0 -3.109375 1.53125 -4.9375q1.53125 -1.828125 4.109375 -1.828125q2.421875 0 3.828125 1.59375q1.40625 1.578125 1.40625 4.1875l0 1.21875l-8.859375 0q0.0625 2.265625 1.140625 3.4375q1.09375 1.171875 3.0625 1.171875q2.078125 0 4.09375 -0.859375l0 1.734375q-1.03125 0.4375 -1.953125 0.625q-0.90625 0.203125 -2.21875 0.203125zm-0.515625 -11.6875q-1.546875 0 -2.46875 1.015625q-0.921875 1.0 -1.09375 2.78125l6.71875 0q0 -1.84375 -0.828125 -2.8125q-0.8125 -0.984375 -2.328125 -0.984375zm16.839844 7.953125q0 1.78125 -1.34375 2.765625q-1.328125 0.96875 -3.734375 0.96875q-2.5625 0 -3.984375 -0.8125l0 -1.796875q0.921875 0.46875 1.984375 0.734375q1.0625 0.265625 2.046875 0.265625q1.515625 0 2.328125 -0.484375q0.828125 -0.484375 0.828125 -1.484375q0 -0.75 -0.65625 -1.28125q-0.640625 -0.53125 -2.53125 -1.265625q-1.78125 -0.65625 -2.546875 -1.15625q-0.75 -0.5 -1.125 -1.125q-0.359375 -0.640625 -0.359375 -1.515625q0 -1.578125 1.265625 -2.484375q1.28125 -0.90625 3.515625 -0.90625q2.0625 0 4.046875 0.84375l-0.6875 1.578125q-1.9375 -0.796875 -3.5 -0.796875q-1.390625 0 -2.09375 0.4375q-0.703125 0.4375 -0.703125 1.1875q0 0.515625 0.265625 0.890625q0.265625 0.359375 0.84375 0.6875q0.59375 0.328125 2.25 0.953125q2.296875 0.828125 3.09375 1.671875q0.796875 0.84375 0.796875 2.125z" fill-rule="nonzero"></path></g></svg>

